<svg width="412" height="85" viewBox="0 0 412 85" fill="none" xmlns="http://www.w3.org/2000/svg">
<path d="M0 0H412V84.2044H0V0Z" fill="#BF8B30" fill-opacity="0.65"/>
<path d="M379.188 28.375H344.812C343.95 28.375 343.25 29.0746 343.25 29.9375V58.0625C343.25 58.9254 343.95 59.625 344.812 59.625H379.188C380.05 59.625 380.75 58.9254 380.75 58.0625V29.9375C380.75 29.0746 380.05 28.375 379.188 28.375Z" stroke="white" stroke-width="3" stroke-linecap="round" stroke-linejoin="round"/>
<path d="M343.25 51.8125L353.074 41.9883C353.22 41.8407 353.393 41.7234 353.584 41.6434C353.775 41.5634 353.98 41.5222 354.188 41.5222C354.395 41.5222 354.6 41.5634 354.791 41.6434C354.982 41.7234 355.155 41.8407 355.301 41.9883L364.012 50.6992C364.157 50.8469 364.33 50.9641 364.522 51.0441C364.713 51.1242 364.918 51.1654 365.125 51.1654C365.332 51.1654 365.537 51.1242 365.728 51.0441C365.92 50.9641 366.093 50.8469 366.238 50.6992L370.262 46.6758C370.407 46.5282 370.58 46.4109 370.772 46.3309C370.963 46.2509 371.168 46.2097 371.375 46.2097C371.582 46.2097 371.787 46.2509 371.978 46.3309C372.17 46.4109 372.343 46.5282 372.488 46.6758L380.75 54.9375" stroke="white" stroke-width="3" stroke-linecap="round" stroke-linejoin="round"/>
<path d="M367.469 40.875C368.763 40.875 369.812 39.8257 369.812 38.5312C369.812 37.2368 368.763 36.1875 367.469 36.1875C366.174 36.1875 365.125 37.2368 365.125 38.5312C365.125 39.8257 366.174 40.875 367.469 40.875Z" fill="white"/>
<path d="M12.5256 52H8.57102L14.5966 34.5455H19.3523L25.3693 52H21.4148L17.0426 38.5341H16.9062L12.5256 52ZM12.2784 45.1392H21.6193V48.0199H12.2784V45.1392ZM24.6726 37.5881V34.5455H39.0078V37.5881H33.6641V52H30.0163V37.5881H24.6726ZM52.1499 34.5455H55.8402V45.8807C55.8402 47.1534 55.5362 48.267 54.9283 49.2216C54.326 50.1761 53.4822 50.9205 52.397 51.4545C51.3118 51.983 50.0476 52.2472 48.6044 52.2472C47.1555 52.2472 45.8885 51.983 44.8033 51.4545C43.718 50.9205 42.8743 50.1761 42.272 49.2216C41.6697 48.267 41.3686 47.1534 41.3686 45.8807V34.5455H45.0589V45.5653C45.0589 46.2301 45.2038 46.821 45.4936 47.3381C45.7891 47.8551 46.2038 48.2614 46.7379 48.5568C47.272 48.8523 47.8942 49 48.6044 49C49.3203 49 49.9425 48.8523 50.4709 48.5568C51.005 48.2614 51.4169 47.8551 51.7067 47.3381C52.0021 46.821 52.1499 46.2301 52.1499 45.5653V34.5455ZM61.8849 52H57.9304L63.956 34.5455H68.7116L74.7287 52H70.7741L66.402 38.5341H66.2656L61.8849 52ZM61.6378 45.1392H70.9787V48.0199H61.6378V45.1392ZM76.8295 52V34.5455H80.5199V48.9574H88.0028V52H76.8295ZM94.1371 34.5455V52H90.4467V34.5455H94.1371ZM96.9858 52V49.8097L105.696 37.5881H96.9688V34.5455H110.332V36.7358L101.614 48.9574H110.349V52H96.9858ZM116.19 52H112.235L118.261 34.5455H123.016L129.033 52H125.079L120.707 38.5341H120.57L116.19 52ZM115.942 45.1392H125.283V48.0199H115.942V45.1392ZM145.714 40.6562H141.982C141.913 40.1733 141.774 39.7443 141.564 39.3693C141.354 38.9886 141.084 38.6648 140.754 38.3977C140.425 38.1307 140.044 37.9261 139.612 37.7841C139.186 37.642 138.723 37.571 138.223 37.571C137.32 37.571 136.533 37.7955 135.862 38.2443C135.192 38.6875 134.672 39.3352 134.303 40.1875C133.933 41.0341 133.749 42.0625 133.749 43.2727C133.749 44.517 133.933 45.5625 134.303 46.4091C134.678 47.2557 135.2 47.8949 135.871 48.3267C136.541 48.7585 137.317 48.9744 138.197 48.9744C138.692 48.9744 139.149 48.9091 139.57 48.7784C139.996 48.6477 140.374 48.4574 140.703 48.2074C141.033 47.9517 141.305 47.642 141.521 47.2784C141.743 46.9148 141.896 46.5 141.982 46.0341L145.714 46.0511C145.618 46.8523 145.376 47.625 144.99 48.3693C144.609 49.108 144.095 49.7699 143.447 50.3551C142.805 50.9347 142.038 51.3949 141.146 51.7358C140.26 52.071 139.257 52.2386 138.138 52.2386C136.581 52.2386 135.189 51.8864 133.962 51.1818C132.74 50.4773 131.774 49.4574 131.064 48.1222C130.359 46.7869 130.007 45.1705 130.007 43.2727C130.007 41.3693 130.365 39.75 131.081 38.4148C131.797 37.0795 132.768 36.0625 133.996 35.3636C135.223 34.6591 136.604 34.3068 138.138 34.3068C139.149 34.3068 140.087 34.4489 140.95 34.733C141.82 35.017 142.589 35.4318 143.26 35.9773C143.93 36.517 144.476 37.179 144.896 37.9631C145.322 38.7472 145.595 39.6449 145.714 40.6562ZM137.226 51.9489H138.896L138.76 52.6903C139.345 52.7813 139.822 53 140.192 53.3466C140.567 53.6932 140.757 54.1648 140.763 54.7614C140.768 55.608 140.376 56.2812 139.587 56.7812C138.797 57.2869 137.689 57.5398 136.263 57.5398L136.229 55.9205C136.945 55.9205 137.504 55.8324 137.908 55.6562C138.317 55.4858 138.53 55.2188 138.547 54.8551C138.558 54.5085 138.425 54.2443 138.146 54.0625C137.868 53.8807 137.433 53.7528 136.842 53.679L137.226 51.9489ZM164.401 43.2727C164.401 45.1761 164.04 46.7955 163.318 48.1307C162.602 49.4659 161.625 50.4858 160.386 51.1903C159.153 51.8892 157.767 52.2386 156.227 52.2386C154.676 52.2386 153.284 51.8864 152.051 51.1818C150.818 50.4773 149.844 49.4574 149.128 48.1222C148.412 46.7869 148.054 45.1705 148.054 43.2727C148.054 41.3693 148.412 39.75 149.128 38.4148C149.844 37.0795 150.818 36.0625 152.051 35.3636C153.284 34.6591 154.676 34.3068 156.227 34.3068C157.767 34.3068 159.153 34.6591 160.386 35.3636C161.625 36.0625 162.602 37.0795 163.318 38.4148C164.04 39.75 164.401 41.3693 164.401 43.2727ZM160.659 43.2727C160.659 42.0398 160.474 41 160.105 40.1534C159.741 39.3068 159.227 38.6648 158.562 38.2273C157.898 37.7898 157.119 37.571 156.227 37.571C155.335 37.571 154.557 37.7898 153.892 38.2273C153.227 38.6648 152.71 39.3068 152.341 40.1534C151.977 41 151.795 42.0398 151.795 43.2727C151.795 44.5057 151.977 45.5455 152.341 46.392C152.71 47.2386 153.227 47.8807 153.892 48.3182C154.557 48.7557 155.335 48.9744 156.227 48.9744C157.119 48.9744 157.898 48.7557 158.562 48.3182C159.227 47.8807 159.741 47.2386 160.105 46.392C160.474 45.5455 160.659 44.5057 160.659 43.2727ZM153.781 32.8239L151.77 32.7983C151.77 31.7131 152.037 30.8807 152.571 30.3011C153.105 29.7216 153.761 29.429 154.54 29.4233C154.938 29.4233 155.278 29.4886 155.562 29.6193C155.847 29.7443 156.105 29.892 156.338 30.0625C156.571 30.233 156.793 30.3835 157.003 30.5142C157.213 30.6392 157.44 30.7017 157.685 30.7017C158.014 30.696 158.264 30.5739 158.435 30.3352C158.611 30.0909 158.699 29.7727 158.699 29.3807L160.685 29.4403C160.673 30.5142 160.401 31.3437 159.866 31.929C159.332 32.5085 158.679 32.8011 157.906 32.8068C157.486 32.8125 157.131 32.75 156.841 32.6193C156.557 32.4886 156.307 32.3409 156.091 32.1761C155.875 32.0057 155.665 31.8551 155.46 31.7244C155.256 31.5937 155.026 31.5284 154.77 31.5284C154.474 31.5284 154.236 31.6449 154.054 31.8778C153.872 32.1108 153.781 32.4261 153.781 32.8239ZM167.134 52V34.5455H178.896V37.5881H170.825V41.7472H178.29V44.7898H170.825V48.9574H178.93V52H167.134ZM191.298 39.5653C191.23 38.8778 190.938 38.3437 190.42 37.9631C189.903 37.5824 189.202 37.392 188.315 37.392C187.713 37.392 187.205 37.4773 186.79 37.6477C186.375 37.8125 186.057 38.0426 185.835 38.3381C185.619 38.6335 185.511 38.9688 185.511 39.3438C185.5 39.6562 185.565 39.929 185.707 40.1619C185.855 40.3949 186.057 40.5966 186.312 40.767C186.568 40.9318 186.864 41.0767 187.199 41.2017C187.534 41.321 187.892 41.4233 188.273 41.5085L189.841 41.8835C190.602 42.054 191.301 42.2812 191.938 42.5653C192.574 42.8494 193.125 43.1989 193.591 43.6136C194.057 44.0284 194.418 44.517 194.673 45.0795C194.935 45.642 195.068 46.2869 195.074 47.0142C195.068 48.0824 194.795 49.0085 194.256 49.7926C193.722 50.571 192.949 51.1761 191.938 51.608C190.932 52.0341 189.719 52.2472 188.298 52.2472C186.889 52.2472 185.662 52.0312 184.616 51.5994C183.577 51.1676 182.764 50.5284 182.179 49.6818C181.599 48.8295 181.295 47.7756 181.267 46.5199H184.838C184.878 47.1051 185.045 47.5937 185.341 47.9858C185.642 48.3722 186.043 48.6648 186.543 48.8636C187.048 49.0568 187.619 49.1534 188.256 49.1534C188.881 49.1534 189.423 49.0625 189.884 48.8807C190.349 48.6989 190.71 48.446 190.966 48.1222C191.222 47.7983 191.349 47.4261 191.349 47.0057C191.349 46.6136 191.233 46.2841 191 46.017C190.773 45.75 190.438 45.5227 189.994 45.3352C189.557 45.1477 189.02 44.9773 188.384 44.8239L186.483 44.3466C185.011 43.9886 183.849 43.429 182.997 42.6676C182.145 41.9062 181.722 40.8807 181.727 39.5909C181.722 38.5341 182.003 37.6108 182.571 36.821C183.145 36.0312 183.932 35.4148 184.932 34.9716C185.932 34.5284 187.068 34.3068 188.341 34.3068C189.636 34.3068 190.767 34.5284 191.733 34.9716C192.705 35.4148 193.46 36.0312 194 36.821C194.54 37.6108 194.818 38.5256 194.835 39.5653H191.298ZM203.111 34.5455H207.662L212.469 46.2727H212.673L217.48 34.5455H222.031V52H218.452V40.6392H218.307L213.79 51.9148H211.352L206.835 40.5966H206.69V52H203.111V34.5455ZM225.072 52V34.5455H236.833V37.5881H228.762V41.7472H236.228V44.7898H228.762V48.9574H236.867V52H225.072ZM254.366 34.5455V52H251.179L243.585 41.0142H243.457V52H239.767V34.5455H243.006L250.54 45.5227H250.693V34.5455H254.366ZM266.884 39.5653C266.816 38.8778 266.523 38.3437 266.006 37.9631C265.489 37.5824 264.788 37.392 263.901 37.392C263.299 37.392 262.79 37.4773 262.376 37.6477C261.961 37.8125 261.643 38.0426 261.421 38.3381C261.205 38.6335 261.097 38.9688 261.097 39.3438C261.086 39.6562 261.151 39.929 261.293 40.1619C261.441 40.3949 261.643 40.5966 261.898 40.767C262.154 40.9318 262.45 41.0767 262.785 41.2017C263.12 41.321 263.478 41.4233 263.859 41.5085L265.427 41.8835C266.188 42.054 266.887 42.2812 267.523 42.5653C268.16 42.8494 268.711 43.1989 269.177 43.6136C269.643 44.0284 270.004 44.517 270.259 45.0795C270.521 45.642 270.654 46.2869 270.66 47.0142C270.654 48.0824 270.381 49.0085 269.842 49.7926C269.308 50.571 268.535 51.1761 267.523 51.608C266.518 52.0341 265.305 52.2472 263.884 52.2472C262.475 52.2472 261.248 52.0312 260.202 51.5994C259.163 51.1676 258.35 50.5284 257.765 49.6818C257.185 48.8295 256.881 47.7756 256.853 46.5199H260.424C260.464 47.1051 260.631 47.5937 260.927 47.9858C261.228 48.3722 261.629 48.6648 262.129 48.8636C262.634 49.0568 263.205 49.1534 263.842 49.1534C264.467 49.1534 265.009 49.0625 265.469 48.8807C265.935 48.6989 266.296 48.446 266.552 48.1222C266.808 47.7983 266.935 47.4261 266.935 47.0057C266.935 46.6136 266.819 46.2841 266.586 46.017C266.359 45.75 266.023 45.5227 265.58 45.3352C265.143 45.1477 264.606 44.9773 263.969 44.8239L262.069 44.3466C260.597 43.9886 259.435 43.429 258.583 42.6676C257.731 41.9062 257.308 40.8807 257.313 39.5909C257.308 38.5341 257.589 37.6108 258.157 36.821C258.731 36.0312 259.518 35.4148 260.518 34.9716C261.518 34.5284 262.654 34.3068 263.927 34.3068C265.222 34.3068 266.353 34.5284 267.319 34.9716C268.29 35.4148 269.046 36.0312 269.586 36.821C270.126 37.6108 270.404 38.5256 270.421 39.5653H266.884ZM275.752 52H271.798L277.823 34.5455H282.579L288.596 52H284.641L280.269 38.5341H280.133L275.752 52ZM275.505 45.1392H284.846V48.0199H275.505V45.1392ZM294.387 34.5455V52H290.697V34.5455H294.387ZM306.892 39.5653C306.824 38.8778 306.531 38.3437 306.014 37.9631C305.497 37.5824 304.795 37.392 303.909 37.392C303.307 37.392 302.798 37.4773 302.384 37.6477C301.969 37.8125 301.651 38.0426 301.429 38.3381C301.213 38.6335 301.105 38.9688 301.105 39.3438C301.094 39.6562 301.159 39.929 301.301 40.1619C301.449 40.3949 301.651 40.5966 301.906 40.767C302.162 40.9318 302.457 41.0767 302.793 41.2017C303.128 41.321 303.486 41.4233 303.866 41.5085L305.435 41.8835C306.196 42.054 306.895 42.2812 307.531 42.5653C308.168 42.8494 308.719 43.1989 309.185 43.6136C309.651 44.0284 310.011 44.517 310.267 45.0795C310.528 45.642 310.662 46.2869 310.668 47.0142C310.662 48.0824 310.389 49.0085 309.849 49.7926C309.315 50.571 308.543 51.1761 307.531 51.608C306.526 52.0341 305.313 52.2472 303.892 52.2472C302.483 52.2472 301.256 52.0312 300.21 51.5994C299.17 51.1676 298.358 50.5284 297.773 49.6818C297.193 48.8295 296.889 47.7756 296.861 46.5199H300.432C300.472 47.1051 300.639 47.5937 300.935 47.9858C301.236 48.3722 301.636 48.6648 302.136 48.8636C302.642 49.0568 303.213 49.1534 303.849 49.1534C304.474 49.1534 305.017 49.0625 305.477 48.8807C305.943 48.6989 306.304 48.446 306.56 48.1222C306.815 47.7983 306.943 47.4261 306.943 47.0057C306.943 46.6136 306.827 46.2841 306.594 46.017C306.366 45.75 306.031 45.5227 305.588 45.3352C305.151 45.1477 304.614 44.9773 303.977 44.8239L302.077 44.3466C300.605 43.9886 299.443 43.429 298.591 42.6676C297.739 41.9062 297.315 40.8807 297.321 39.5909C297.315 38.5341 297.597 37.6108 298.165 36.821C298.739 36.0312 299.526 35.4148 300.526 34.9716C301.526 34.5284 302.662 34.3068 303.935 34.3068C305.23 34.3068 306.361 34.5284 307.327 34.9716C308.298 35.4148 309.054 36.0312 309.594 36.821C310.134 37.6108 310.412 38.5256 310.429 39.5653H306.892Z" fill="white"/>
</svg>
