<svg width="60" height="60" viewBox="0 0 60 60" fill="none" xmlns="http://www.w3.org/2000/svg">
<rect width="60" height="60" rx="8" fill="#223946" fill-opacity="0.75"/>
<path d="M55 2H5V52H55V2Z" fill="#223946" fill-opacity="0.75"/>
<path d="M34.6875 45.9583V36.5833C34.6875 36.1689 34.5229 35.7715 34.2299 35.4785C33.9368 35.1855 33.5394 35.0208 33.125 35.0208H26.875C26.4606 35.0208 26.0632 35.1855 25.7701 35.4785C25.4771 35.7715 25.3125 36.1689 25.3125 36.5833V45.9583C25.3125 46.3727 25.1479 46.7702 24.8549 47.0632C24.5618 47.3562 24.1644 47.5208 23.75 47.5208H14.375C13.9606 47.5208 13.5632 47.3562 13.2701 47.0632C12.9771 46.7702 12.8125 46.3727 12.8125 45.9583V27.8919C12.816 27.6757 12.8627 27.4623 12.9499 27.2644C13.0372 27.0665 13.1631 26.8881 13.3203 26.7396L28.9453 12.5404C29.2334 12.2769 29.6096 12.1307 30 12.1307C30.3904 12.1307 30.7666 12.2769 31.0547 12.5404L46.6797 26.7396C46.8369 26.8881 46.9628 27.0665 47.0501 27.2644C47.1373 27.4623 47.184 27.6757 47.1875 27.8919V45.9583C47.1875 46.3727 47.0229 46.7702 46.7299 47.0632C46.4368 47.3562 46.0394 47.5208 45.625 47.5208H36.25C35.8356 47.5208 35.4382 47.3562 35.1451 47.0632C34.8521 46.7702 34.6875 46.3727 34.6875 45.9583Z" fill="#223946" fill-opacity="0.75" stroke="white" stroke-opacity="0.75" stroke-width="4" stroke-linecap="round" stroke-linejoin="round"/>
</svg>
