<svg width="60" height="60" viewBox="0 0 60 60" fill="none" xmlns="http://www.w3.org/2000/svg">
<rect width="60" height="60" rx="8" fill="#223946" fill-opacity="0.75"/>
<path d="M20.625 34.5625H39.375" stroke="white" stroke-opacity="0.75" stroke-width="4" stroke-linecap="round" stroke-linejoin="round"/>
<path d="M14.375 26.75V22.0625C14.375 20.4049 15.0335 18.8152 16.2056 17.6431C17.3777 16.471 18.9674 15.8125 20.625 15.8125H39.375C41.0326 15.8125 42.6223 16.471 43.7944 17.6431C44.9665 18.8152 45.625 20.4049 45.625 22.0625V26.75" stroke="white" stroke-opacity="0.75" stroke-width="4" stroke-linecap="round" stroke-linejoin="round"/>
<path d="M20.625 40.8125V33C20.625 31.7639 20.2584 30.5555 19.5717 29.5277C18.8849 28.4999 17.9088 27.6988 16.7668 27.2258C15.6247 26.7527 14.3681 26.6289 13.1557 26.8701C11.9433 27.1113 10.8297 27.7065 9.95559 28.5806C9.08151 29.4547 8.48625 30.5683 8.24509 31.7807C8.00394 32.9931 8.12771 34.2497 8.60076 35.3918C9.0738 36.5338 9.87488 37.5099 10.9027 38.1967C11.9305 38.8834 13.1389 39.25 14.375 39.25V47.0625C14.375 47.4769 14.5396 47.8743 14.8326 48.1674C15.1257 48.4604 15.5231 48.625 15.9375 48.625H44.0625C44.4769 48.625 44.8743 48.4604 45.1674 48.1674C45.4604 47.8743 45.625 47.4769 45.625 47.0625V39.25C46.8611 39.25 48.0695 38.8834 49.0973 38.1967C50.1251 37.5099 50.9262 36.5338 51.3993 35.3918C51.8723 34.2497 51.9961 32.9931 51.7549 31.7807C51.5138 30.5683 50.9185 29.4547 50.0444 28.5806C49.1703 27.7065 48.0567 27.1113 46.8443 26.8701C45.6319 26.6289 44.3753 26.7527 43.2332 27.2258C42.0912 27.6988 41.1151 28.4999 40.4283 29.5277C39.7416 30.5555 39.375 31.7639 39.375 33V40.8125" stroke="white" stroke-opacity="0.75" stroke-width="4" stroke-linecap="round" stroke-linejoin="round"/>
</svg>
