<svg width="581" height="84" viewBox="0 0 581 84" fill="none" xmlns="http://www.w3.org/2000/svg">
<path d="M0 0H581V84H0V0Z" fill="#BF8A30" fill-opacity="0.65"/>
<path d="M545.754 30.8672C546.779 33.2603 547.03 35.9141 546.471 38.4569C545.913 40.9997 544.574 43.3043 542.641 45.0481C540.707 46.7918 538.277 47.8873 535.691 48.1813C533.104 48.4753 530.49 47.953 528.215 46.6875V46.6875L517.258 59.3828C516.377 60.2634 515.183 60.7581 513.937 60.7581C512.692 60.7581 511.498 60.2634 510.617 59.3828C509.737 58.5022 509.242 57.3079 509.242 56.0625C509.242 54.8172 509.737 53.6228 510.617 52.7422L523.312 41.7852C522.047 39.51 521.525 36.8961 521.819 34.3094C522.113 31.7226 523.208 29.2926 524.952 27.3594C526.696 25.4263 529 24.0868 531.543 23.5286C534.086 22.9703 536.74 23.2212 539.133 24.2461L530.93 32.4297L532.043 37.957L537.57 39.0703L545.754 30.8672Z" stroke="white" stroke-width="4" stroke-linecap="round" stroke-linejoin="round"/>
<path d="M15.2074 33.5455V51H11.517V33.5455H15.2074ZM32.843 33.5455V51H29.6555L22.0618 40.0142H21.9339V51H18.2436V33.5455H21.4822L29.0163 44.5227H29.1697V33.5455H32.843ZM35.892 51V33.5455H47.4489V36.5881H39.5824V40.7472H46.6818V43.7898H39.5824V51H35.892ZM65.9709 42.2727C65.9709 44.1761 65.6101 45.7955 64.8885 47.1307C64.1726 48.4659 63.1953 49.4858 61.9567 50.1903C60.7237 50.8892 59.3374 51.2386 57.7976 51.2386C56.2464 51.2386 54.8544 50.8864 53.6214 50.1818C52.3885 49.4773 51.4141 48.4574 50.6982 47.1222C49.9822 45.7869 49.6243 44.1705 49.6243 42.2727C49.6243 40.3693 49.9822 38.75 50.6982 37.4148C51.4141 36.0795 52.3885 35.0625 53.6214 34.3636C54.8544 33.6591 56.2464 33.3068 57.7976 33.3068C59.3374 33.3068 60.7237 33.6591 61.9567 34.3636C63.1953 35.0625 64.1726 36.0795 64.8885 37.4148C65.6101 38.75 65.9709 40.3693 65.9709 42.2727ZM62.2294 42.2727C62.2294 41.0398 62.0447 40 61.6754 39.1534C61.3118 38.3068 60.7976 37.6648 60.1328 37.2273C59.468 36.7898 58.6896 36.571 57.7976 36.571C56.9055 36.571 56.1271 36.7898 55.4624 37.2273C54.7976 37.6648 54.2805 38.3068 53.9112 39.1534C53.5476 40 53.3658 41.0398 53.3658 42.2727C53.3658 43.5057 53.5476 44.5455 53.9112 45.392C54.2805 46.2386 54.7976 46.8807 55.4624 47.3182C56.1271 47.7557 56.9055 47.9744 57.7976 47.9744C58.6896 47.9744 59.468 47.7557 60.1328 47.3182C60.7976 46.8807 61.3118 46.2386 61.6754 45.392C62.0447 44.5455 62.2294 43.5057 62.2294 42.2727ZM68.7045 51V33.5455H75.5909C76.9091 33.5455 78.0341 33.7812 78.9659 34.2528C79.9034 34.7187 80.6165 35.3807 81.1051 36.2386C81.5994 37.0909 81.8466 38.0937 81.8466 39.2472C81.8466 40.4062 81.5966 41.4034 81.0966 42.2386C80.5966 43.0682 79.8722 43.7045 78.9233 44.1477C77.9801 44.5909 76.8381 44.8125 75.4972 44.8125H70.8864V41.8466H74.9006C75.6051 41.8466 76.1903 41.75 76.6562 41.5568C77.1222 41.3636 77.4688 41.0739 77.696 40.6875C77.929 40.3011 78.0455 39.821 78.0455 39.2472C78.0455 38.6676 77.929 38.179 77.696 37.7812C77.4688 37.3835 77.1193 37.0824 76.6477 36.8778C76.1818 36.6676 75.5938 36.5625 74.8835 36.5625H72.3949V51H68.7045ZM78.1307 43.0568L82.4688 51H78.3949L74.1506 43.0568H78.1307ZM84.4545 33.5455H89.0057L93.8125 45.2727H94.017L98.8239 33.5455H103.375V51H99.7955V39.6392H99.6506L95.1335 50.9148H92.696L88.179 39.5966H88.0341V51H84.4545V33.5455ZM109.424 51H105.469L111.495 33.5455H116.251L122.268 51H118.313L113.941 37.5341H113.805L109.424 51ZM109.177 44.1392H118.518V47.0199H109.177V44.1392ZM138.949 39.6562H135.216C135.148 39.1733 135.009 38.7443 134.798 38.3693C134.588 37.9886 134.318 37.6648 133.989 37.3977C133.659 37.1307 133.278 36.9261 132.847 36.7841C132.42 36.642 131.957 36.571 131.457 36.571C130.554 36.571 129.767 36.7955 129.097 37.2443C128.426 37.6875 127.906 38.3352 127.537 39.1875C127.168 40.0341 126.983 41.0625 126.983 42.2727C126.983 43.517 127.168 44.5625 127.537 45.4091C127.912 46.2557 128.435 46.8949 129.105 47.3267C129.776 47.7585 130.551 47.9744 131.432 47.9744C131.926 47.9744 132.384 47.9091 132.804 47.7784C133.23 47.6477 133.608 47.4574 133.938 47.2074C134.267 46.9517 134.54 46.642 134.756 46.2784C134.977 45.9148 135.131 45.5 135.216 45.0341L138.949 45.0511C138.852 45.8523 138.611 46.625 138.224 47.3693C137.844 48.108 137.33 48.7699 136.682 49.3551C136.04 49.9347 135.273 50.3949 134.381 50.7358C133.494 51.071 132.491 51.2386 131.372 51.2386C129.815 51.2386 128.423 50.8864 127.196 50.1818C125.974 49.4773 125.009 48.4574 124.298 47.1222C123.594 45.7869 123.241 44.1705 123.241 42.2727C123.241 40.3693 123.599 38.75 124.315 37.4148C125.031 36.0795 126.003 35.0625 127.23 34.3636C128.457 33.6591 129.838 33.3068 131.372 33.3068C132.384 33.3068 133.321 33.4489 134.185 33.733C135.054 34.017 135.824 34.4318 136.494 34.9773C137.165 35.517 137.71 36.179 138.131 36.9631C138.557 37.7472 138.83 38.6449 138.949 39.6562ZM130.46 50.9489H132.131L131.994 51.6903C132.58 51.7813 133.057 52 133.426 52.3466C133.801 52.6932 133.991 53.1648 133.997 53.7614C134.003 54.608 133.611 55.2812 132.821 55.7812C132.031 56.2869 130.923 56.5398 129.497 56.5398L129.463 54.9205C130.179 54.9205 130.739 54.8324 131.142 54.6562C131.551 54.4858 131.764 54.2188 131.781 53.8551C131.793 53.5085 131.659 53.2443 131.381 53.0625C131.102 52.8807 130.668 52.7528 130.077 52.679L130.46 50.9489ZM157.635 42.2727C157.635 44.1761 157.274 45.7955 156.553 47.1307C155.837 48.4659 154.859 49.4858 153.621 50.1903C152.388 50.8892 151.001 51.2386 149.462 51.2386C147.911 51.2386 146.518 50.8864 145.286 50.1818C144.053 49.4773 143.078 48.4574 142.362 47.1222C141.646 45.7869 141.288 44.1705 141.288 42.2727C141.288 40.3693 141.646 38.75 142.362 37.4148C143.078 36.0795 144.053 35.0625 145.286 34.3636C146.518 33.6591 147.911 33.3068 149.462 33.3068C151.001 33.3068 152.388 33.6591 153.621 34.3636C154.859 35.0625 155.837 36.0795 156.553 37.4148C157.274 38.75 157.635 40.3693 157.635 42.2727ZM153.893 42.2727C153.893 41.0398 153.709 40 153.339 39.1534C152.976 38.3068 152.462 37.6648 151.797 37.2273C151.132 36.7898 150.354 36.571 149.462 36.571C148.57 36.571 147.791 36.7898 147.126 37.2273C146.462 37.6648 145.945 38.3068 145.575 39.1534C145.212 40 145.03 41.0398 145.03 42.2727C145.03 43.5057 145.212 44.5455 145.575 45.392C145.945 46.2386 146.462 46.8807 147.126 47.3182C147.791 47.7557 148.57 47.9744 149.462 47.9744C150.354 47.9744 151.132 47.7557 151.797 47.3182C152.462 46.8807 152.976 46.2386 153.339 45.392C153.709 44.5455 153.893 43.5057 153.893 42.2727ZM147.016 31.8239L145.004 31.7983C145.004 30.7131 145.271 29.8807 145.805 29.3011C146.339 28.7216 146.996 28.429 147.774 28.4233C148.172 28.4233 148.513 28.4886 148.797 28.6193C149.081 28.7443 149.339 28.892 149.572 29.0625C149.805 29.233 150.027 29.3835 150.237 29.5142C150.447 29.6392 150.675 29.7017 150.919 29.7017C151.249 29.696 151.499 29.5739 151.669 29.3352C151.845 29.0909 151.933 28.7727 151.933 28.3807L153.919 28.4403C153.908 29.5142 153.635 30.3437 153.101 30.929C152.567 31.5085 151.913 31.8011 151.141 31.8068C150.72 31.8125 150.365 31.75 150.075 31.6193C149.791 31.4886 149.541 31.3409 149.325 31.1761C149.109 31.0057 148.899 30.8551 148.695 30.7244C148.49 30.5937 148.26 30.5284 148.004 30.5284C147.709 30.5284 147.47 30.6449 147.288 30.8778C147.107 31.1108 147.016 31.4261 147.016 31.8239ZM160.369 51V33.5455H172.13V36.5881H164.059V40.7472H171.525V43.7898H164.059V47.9574H172.164V51H160.369ZM184.533 38.5653C184.464 37.8778 184.172 37.3437 183.655 36.9631C183.138 36.5824 182.436 36.392 181.55 36.392C180.947 36.392 180.439 36.4773 180.024 36.6477C179.609 36.8125 179.291 37.0426 179.07 37.3381C178.854 37.6335 178.746 37.9688 178.746 38.3438C178.734 38.6562 178.8 38.929 178.942 39.1619C179.089 39.3949 179.291 39.5966 179.547 39.767C179.803 39.9318 180.098 40.0767 180.433 40.2017C180.768 40.321 181.126 40.4233 181.507 40.5085L183.075 40.8835C183.837 41.054 184.536 41.2812 185.172 41.5653C185.808 41.8494 186.359 42.1989 186.825 42.6136C187.291 43.0284 187.652 43.517 187.908 44.0795C188.169 44.642 188.303 45.2869 188.308 46.0142C188.303 47.0824 188.03 48.0085 187.49 48.7926C186.956 49.571 186.183 50.1761 185.172 50.608C184.166 51.0341 182.953 51.2472 181.533 51.2472C180.124 51.2472 178.896 51.0312 177.851 50.5994C176.811 50.1676 175.999 49.5284 175.413 48.6818C174.834 47.8295 174.53 46.7756 174.501 45.5199H178.072C178.112 46.1051 178.28 46.5937 178.575 46.9858C178.876 47.3722 179.277 47.6648 179.777 47.8636C180.283 48.0568 180.854 48.1534 181.49 48.1534C182.115 48.1534 182.658 48.0625 183.118 47.8807C183.584 47.6989 183.945 47.446 184.2 47.1222C184.456 46.7983 184.584 46.4261 184.584 46.0057C184.584 45.6136 184.467 45.2841 184.234 45.017C184.007 44.75 183.672 44.5227 183.229 44.3352C182.791 44.1477 182.254 43.9773 181.618 43.8239L179.717 43.3466C178.246 42.9886 177.084 42.429 176.232 41.6676C175.379 40.9062 174.956 39.8807 174.962 38.5909C174.956 37.5341 175.237 36.6108 175.805 35.821C176.379 35.0312 177.166 34.4148 178.166 33.9716C179.166 33.5284 180.303 33.3068 181.575 33.3068C182.871 33.3068 184.001 33.5284 184.967 33.9716C185.939 34.4148 186.695 35.0312 187.234 35.821C187.774 36.6108 188.053 37.5256 188.07 38.5653H184.533ZM205.814 38.5653C205.746 37.8778 205.453 37.3437 204.936 36.9631C204.419 36.5824 203.717 36.392 202.831 36.392C202.229 36.392 201.72 36.4773 201.305 36.6477C200.891 36.8125 200.572 37.0426 200.351 37.3381C200.135 37.6335 200.027 37.9688 200.027 38.3438C200.016 38.6562 200.081 38.929 200.223 39.1619C200.371 39.3949 200.572 39.5966 200.828 39.767C201.084 39.9318 201.379 40.0767 201.714 40.2017C202.05 40.321 202.408 40.4233 202.788 40.5085L204.357 40.8835C205.118 41.054 205.817 41.2812 206.453 41.5653C207.089 41.8494 207.641 42.1989 208.107 42.6136C208.572 43.0284 208.933 43.517 209.189 44.0795C209.45 44.642 209.584 45.2869 209.589 46.0142C209.584 47.0824 209.311 48.0085 208.771 48.7926C208.237 49.571 207.464 50.1761 206.453 50.608C205.447 51.0341 204.234 51.2472 202.814 51.2472C201.405 51.2472 200.178 51.0312 199.132 50.5994C198.092 50.1676 197.28 49.5284 196.695 48.6818C196.115 47.8295 195.811 46.7756 195.783 45.5199H199.354C199.393 46.1051 199.561 46.5937 199.857 46.9858C200.158 47.3722 200.558 47.6648 201.058 47.8636C201.564 48.0568 202.135 48.1534 202.771 48.1534C203.396 48.1534 203.939 48.0625 204.399 47.8807C204.865 47.6989 205.226 47.446 205.482 47.1222C205.737 46.7983 205.865 46.4261 205.865 46.0057C205.865 45.6136 205.749 45.2841 205.516 45.017C205.288 44.75 204.953 44.5227 204.51 44.3352C204.072 44.1477 203.536 43.9773 202.899 43.8239L200.999 43.3466C199.527 42.9886 198.365 42.429 197.513 41.6676C196.661 40.9062 196.237 39.8807 196.243 38.5909C196.237 37.5341 196.518 36.6108 197.087 35.821C197.661 35.0312 198.447 34.4148 199.447 33.9716C200.447 33.5284 201.584 33.3068 202.857 33.3068C204.152 33.3068 205.283 33.5284 206.249 33.9716C207.22 34.4148 207.976 35.0312 208.516 35.821C209.055 36.6108 209.334 37.5256 209.351 38.5653H205.814ZM228.112 42.2727C228.112 44.1761 227.751 45.7955 227.029 47.1307C226.313 48.4659 225.336 49.4858 224.097 50.1903C222.864 50.8892 221.478 51.2386 219.938 51.2386C218.387 51.2386 216.995 50.8864 215.762 50.1818C214.529 49.4773 213.555 48.4574 212.839 47.1222C212.123 45.7869 211.765 44.1705 211.765 42.2727C211.765 40.3693 212.123 38.75 212.839 37.4148C213.555 36.0795 214.529 35.0625 215.762 34.3636C216.995 33.6591 218.387 33.3068 219.938 33.3068C221.478 33.3068 222.864 33.6591 224.097 34.3636C225.336 35.0625 226.313 36.0795 227.029 37.4148C227.751 38.75 228.112 40.3693 228.112 42.2727ZM224.37 42.2727C224.37 41.0398 224.185 40 223.816 39.1534C223.452 38.3068 222.938 37.6648 222.273 37.2273C221.609 36.7898 220.83 36.571 219.938 36.571C219.046 36.571 218.268 36.7898 217.603 37.2273C216.938 37.6648 216.421 38.3068 216.052 39.1534C215.688 40 215.506 41.0398 215.506 42.2727C215.506 43.5057 215.688 44.5455 216.052 45.392C216.421 46.2386 216.938 46.8807 217.603 47.3182C218.268 47.7557 219.046 47.9744 219.938 47.9744C220.83 47.9744 221.609 47.7557 222.273 47.3182C222.938 46.8807 223.452 46.2386 223.816 45.392C224.185 44.5455 224.37 43.5057 224.37 42.2727ZM230.845 51V33.5455H237.834C239.118 33.5455 240.189 33.7358 241.047 34.1165C241.905 34.4972 242.55 35.0256 242.982 35.7017C243.413 36.3722 243.629 37.1449 243.629 38.0199C243.629 38.7017 243.493 39.3011 243.22 39.8182C242.947 40.3295 242.572 40.75 242.095 41.0795C241.624 41.4034 241.084 41.6335 240.476 41.7699V41.9403C241.141 41.9687 241.763 42.1562 242.342 42.5028C242.928 42.8494 243.402 43.3352 243.766 43.9602C244.129 44.5795 244.311 45.3182 244.311 46.1761C244.311 47.1023 244.081 47.929 243.621 48.6562C243.166 49.3778 242.493 49.9489 241.601 50.3693C240.709 50.7898 239.609 51 238.303 51H230.845ZM234.536 47.983H237.544C238.572 47.983 239.322 47.7869 239.794 47.3949C240.266 46.9972 240.501 46.4687 240.501 45.8097C240.501 45.3267 240.385 44.9006 240.152 44.5312C239.919 44.1619 239.587 43.8722 239.155 43.6619C238.729 43.4517 238.22 43.3466 237.629 43.3466H234.536V47.983ZM234.536 40.8494H237.271C237.777 40.8494 238.226 40.7614 238.618 40.5852C239.016 40.4034 239.328 40.1477 239.555 39.8182C239.788 39.4886 239.905 39.0938 239.905 38.6335C239.905 38.0028 239.68 37.4943 239.232 37.108C238.788 36.7216 238.158 36.5284 237.339 36.5284H234.536V40.8494ZM246.712 51V33.5455H253.599C254.917 33.5455 256.042 33.7812 256.974 34.2528C257.911 34.7187 258.624 35.3807 259.113 36.2386C259.607 37.0909 259.854 38.0937 259.854 39.2472C259.854 40.4062 259.604 41.4034 259.104 42.2386C258.604 43.0682 257.88 43.7045 256.931 44.1477C255.988 44.5909 254.846 44.8125 253.505 44.8125H248.894V41.8466H252.908C253.613 41.8466 254.198 41.75 254.664 41.5568C255.13 41.3636 255.477 41.0739 255.704 40.6875C255.937 40.3011 256.053 39.821 256.053 39.2472C256.053 38.6676 255.937 38.179 255.704 37.7812C255.477 37.3835 255.127 37.0824 254.656 36.8778C254.19 36.6676 253.602 36.5625 252.891 36.5625H250.403V51H246.712ZM256.138 43.0568L260.477 51H256.403L252.158 43.0568H256.138ZM262.462 51V33.5455H274.224V36.5881H266.153V40.7472H273.619V43.7898H266.153V47.9574H274.258V51H262.462ZM298.752 42.2727C298.752 44.1761 298.391 45.7955 297.67 47.1307C296.954 48.4659 295.977 49.4858 294.738 50.1903C293.505 50.8892 292.119 51.2386 290.579 51.2386C289.028 51.2386 287.636 50.8864 286.403 50.1818C285.17 49.4773 284.195 48.4574 283.479 47.1222C282.763 45.7869 282.406 44.1705 282.406 42.2727C282.406 40.3693 282.763 38.75 283.479 37.4148C284.195 36.0795 285.17 35.0625 286.403 34.3636C287.636 33.6591 289.028 33.3068 290.579 33.3068C292.119 33.3068 293.505 33.6591 294.738 34.3636C295.977 35.0625 296.954 36.0795 297.67 37.4148C298.391 38.75 298.752 40.3693 298.752 42.2727ZM295.011 42.2727C295.011 41.0398 294.826 40 294.457 39.1534C294.093 38.3068 293.579 37.6648 292.914 37.2273C292.249 36.7898 291.471 36.571 290.579 36.571C289.687 36.571 288.908 36.7898 288.244 37.2273C287.579 37.6648 287.062 38.3068 286.692 39.1534C286.329 40 286.147 41.0398 286.147 42.2727C286.147 43.5057 286.329 44.5455 286.692 45.392C287.062 46.2386 287.579 46.8807 288.244 47.3182C288.908 47.7557 289.687 47.9744 290.579 47.9744C291.471 47.9744 292.249 47.7557 292.914 47.3182C293.579 46.8807 294.093 46.2386 294.457 45.392C294.826 44.5455 295.011 43.5057 295.011 42.2727ZM323.08 42.2727C323.08 44.1761 322.719 45.7955 321.998 47.1307C321.282 48.4659 320.305 49.4858 319.066 50.1903C317.833 50.8892 316.447 51.2386 314.907 51.2386C313.356 51.2386 311.964 50.8864 310.731 50.1818C309.498 49.4773 308.523 48.4574 307.808 47.1222C307.092 45.7869 306.734 44.1705 306.734 42.2727C306.734 40.3693 307.092 38.75 307.808 37.4148C308.523 36.0795 309.498 35.0625 310.731 34.3636C311.964 33.6591 313.356 33.3068 314.907 33.3068C316.447 33.3068 317.833 33.6591 319.066 34.3636C320.305 35.0625 321.282 36.0795 321.998 37.4148C322.719 38.75 323.08 40.3693 323.08 42.2727ZM319.339 42.2727C319.339 41.0398 319.154 40 318.785 39.1534C318.421 38.3068 317.907 37.6648 317.242 37.2273C316.577 36.7898 315.799 36.571 314.907 36.571C314.015 36.571 313.237 36.7898 312.572 37.2273C311.907 37.6648 311.39 38.3068 311.021 39.1534C310.657 40 310.475 41.0398 310.475 42.2727C310.475 43.5057 310.657 44.5455 311.021 45.392C311.39 46.2386 311.907 46.8807 312.572 47.3182C313.237 47.7557 314.015 47.9744 314.907 47.9744C315.799 47.9744 316.577 47.7557 317.242 47.3182C317.907 46.8807 318.421 46.2386 318.785 45.392C319.154 44.5455 319.339 43.5057 319.339 42.2727ZM341.214 39.6562H337.482C337.413 39.1733 337.274 38.7443 337.064 38.3693C336.854 37.9886 336.584 37.6648 336.254 37.3977C335.925 37.1307 335.544 36.9261 335.112 36.7841C334.686 36.642 334.223 36.571 333.723 36.571C332.82 36.571 332.033 36.7955 331.362 37.2443C330.692 37.6875 330.172 38.3352 329.803 39.1875C329.433 40.0341 329.249 41.0625 329.249 42.2727C329.249 43.517 329.433 44.5625 329.803 45.4091C330.178 46.2557 330.7 46.8949 331.371 47.3267C332.041 47.7585 332.817 47.9744 333.697 47.9744C334.192 47.9744 334.649 47.9091 335.07 47.7784C335.496 47.6477 335.874 47.4574 336.203 47.2074C336.533 46.9517 336.805 46.642 337.021 46.2784C337.243 45.9148 337.396 45.5 337.482 45.0341L341.214 45.0511C341.118 45.8523 340.876 46.625 340.49 47.3693C340.109 48.108 339.595 48.7699 338.947 49.3551C338.305 49.9347 337.538 50.3949 336.646 50.7358C335.76 51.071 334.757 51.2386 333.638 51.2386C332.081 51.2386 330.689 50.8864 329.462 50.1818C328.24 49.4773 327.274 48.4574 326.564 47.1222C325.859 45.7869 325.507 44.1705 325.507 42.2727C325.507 40.3693 325.865 38.75 326.581 37.4148C327.297 36.0795 328.268 35.0625 329.496 34.3636C330.723 33.6591 332.104 33.3068 333.638 33.3068C334.649 33.3068 335.587 33.4489 336.45 33.733C337.32 34.017 338.089 34.4318 338.76 34.9773C339.43 35.517 339.976 36.179 340.396 36.9631C340.822 37.7472 341.095 38.6449 341.214 39.6562ZM343.861 51V33.5455H355.622V36.5881H347.551V40.7472H355.017V43.7898H347.551V47.9574H355.656V51H343.861ZM361.565 51H357.61L363.636 33.5455H368.391L374.408 51H370.454L366.082 37.5341H365.945L361.565 51ZM361.317 44.1392H370.658V47.0199H361.317V44.1392ZM391.109 33.5455V51H387.921L380.327 40.0142H380.2V51H376.509V33.5455H379.748L387.282 44.5227H387.435V33.5455H391.109Z" fill="white"/>
</svg>
