<svg width="398" height="87" viewBox="0 0 398 87" fill="none" xmlns="http://www.w3.org/2000/svg">
<path d="M0 0H398V86.8364H0V0Z" fill="#BF8A30" fill-opacity="0.65"/>
<path d="M9.51705 52V34.5455H16.4034C17.7273 34.5455 18.8551 34.7983 19.7869 35.304C20.7188 35.804 21.429 36.5 21.9176 37.392C22.4119 38.2784 22.6591 39.3011 22.6591 40.4602C22.6591 41.6193 22.4091 42.642 21.9091 43.5284C21.4091 44.4148 20.6847 45.1051 19.7358 45.5994C18.7926 46.0937 17.6506 46.3409 16.3097 46.3409H11.9205V43.3835H15.7131C16.4233 43.3835 17.0085 43.2614 17.4688 43.017C17.9347 42.767 18.2813 42.4233 18.5085 41.9858C18.7415 41.5426 18.858 41.0341 18.858 40.4602C18.858 39.8807 18.7415 39.375 18.5085 38.9432C18.2813 38.5057 17.9347 38.1676 17.4688 37.929C17.0028 37.6847 16.4119 37.5625 15.696 37.5625H13.2074V52H9.51705ZM25.0561 52V34.5455H31.9425C33.2607 34.5455 34.3857 34.7812 35.3175 35.2528C36.255 35.7187 36.968 36.3807 37.4567 37.2386C37.951 38.0909 38.1982 39.0937 38.1982 40.2472C38.1982 41.4062 37.9482 42.4034 37.4482 43.2386C36.9482 44.0682 36.2237 44.7045 35.2749 45.1477C34.3317 45.5909 33.1896 45.8125 31.8487 45.8125H27.2379V42.8466H31.2521C31.9567 42.8466 32.5419 42.75 33.0078 42.5568C33.4737 42.3636 33.8203 42.0739 34.0476 41.6875C34.2805 41.3011 34.397 40.821 34.397 40.2472C34.397 39.6676 34.2805 39.179 34.0476 38.7812C33.8203 38.3835 33.4709 38.0824 32.9993 37.8778C32.5334 37.6676 31.9453 37.5625 31.2351 37.5625H28.7464V52H25.0561ZM34.4822 44.0568L38.8203 52H34.7464L30.5021 44.0568H34.4822ZM56.8459 43.2727C56.8459 45.1761 56.4851 46.7955 55.7635 48.1307C55.0476 49.4659 54.0703 50.4858 52.8317 51.1903C51.5987 51.8892 50.2124 52.2386 48.6726 52.2386C47.1214 52.2386 45.7294 51.8864 44.4964 51.1818C43.2635 50.4773 42.2891 49.4574 41.5732 48.1222C40.8572 46.7869 40.4993 45.1705 40.4993 43.2727C40.4993 41.3693 40.8572 39.75 41.5732 38.4148C42.2891 37.0795 43.2635 36.0625 44.4964 35.3636C45.7294 34.6591 47.1214 34.3068 48.6726 34.3068C50.2124 34.3068 51.5987 34.6591 52.8317 35.3636C54.0703 36.0625 55.0476 37.0795 55.7635 38.4148C56.4851 39.75 56.8459 41.3693 56.8459 43.2727ZM53.1044 43.2727C53.1044 42.0398 52.9197 41 52.5504 40.1534C52.1868 39.3068 51.6726 38.6648 51.0078 38.2273C50.343 37.7898 49.5646 37.571 48.6726 37.571C47.7805 37.571 47.0021 37.7898 46.3374 38.2273C45.6726 38.6648 45.1555 39.3068 44.7862 40.1534C44.4226 41 44.2408 42.0398 44.2408 43.2727C44.2408 44.5057 44.4226 45.5455 44.7862 46.392C45.1555 47.2386 45.6726 47.8807 46.3374 48.3182C47.0021 48.7557 47.7805 48.9744 48.6726 48.9744C49.5646 48.9744 50.343 48.7557 51.0078 48.3182C51.6726 47.8807 52.1868 47.2386 52.5504 46.392C52.9197 45.5455 53.1044 44.5057 53.1044 43.2727ZM71.1534 40.1875C71.0341 39.7727 70.8665 39.4062 70.6506 39.0881C70.4347 38.7642 70.1705 38.4915 69.858 38.2699C69.5511 38.0426 69.1989 37.8693 68.8011 37.75C68.4091 37.6307 67.9744 37.571 67.4972 37.571C66.6051 37.571 65.821 37.7926 65.1449 38.2358C64.4744 38.679 63.9517 39.3239 63.5767 40.1705C63.2017 41.0114 63.0142 42.0398 63.0142 43.2557C63.0142 44.4716 63.1989 45.5057 63.5682 46.358C63.9375 47.2102 64.4602 47.8608 65.1364 48.3097C65.8125 48.7528 66.6108 48.9744 67.5312 48.9744C68.3665 48.9744 69.0795 48.8267 69.6705 48.5312C70.267 48.2301 70.7216 47.8068 71.0341 47.2614C71.3523 46.7159 71.5114 46.071 71.5114 45.3267L72.2614 45.4375H67.7614V42.6591H75.0653V44.858C75.0653 46.392 74.7415 47.7102 74.0938 48.8125C73.446 49.9091 72.554 50.7557 71.4176 51.3523C70.2812 51.9432 68.9801 52.2386 67.5142 52.2386C65.8778 52.2386 64.4403 51.8778 63.2017 51.1562C61.9631 50.429 60.9972 49.3977 60.304 48.0625C59.6165 46.7216 59.2727 45.1307 59.2727 43.2898C59.2727 41.875 59.4773 40.6136 59.8864 39.5057C60.3011 38.392 60.8807 37.4489 61.625 36.6761C62.3693 35.9034 63.2358 35.3153 64.2244 34.9119C65.2131 34.5085 66.2841 34.3068 67.4375 34.3068C68.4261 34.3068 69.3466 34.4517 70.1989 34.7415C71.0511 35.0256 71.8068 35.429 72.4659 35.9517C73.1307 36.4744 73.6733 37.0966 74.0938 37.8182C74.5142 38.5341 74.7841 39.3239 74.9034 40.1875H71.1534ZM77.8374 52V34.5455H84.7237C86.0419 34.5455 87.1669 34.7812 88.0987 35.2528C89.0362 35.7187 89.7493 36.3807 90.2379 37.2386C90.7322 38.0909 90.9794 39.0937 90.9794 40.2472C90.9794 41.4062 90.7294 42.4034 90.2294 43.2386C89.7294 44.0682 89.005 44.7045 88.0561 45.1477C87.1129 45.5909 85.9709 45.8125 84.63 45.8125H80.0192V42.8466H84.0334C84.7379 42.8466 85.3232 42.75 85.7891 42.5568C86.255 42.3636 86.6016 42.0739 86.8288 41.6875C87.0618 41.3011 87.1783 40.821 87.1783 40.2472C87.1783 39.6676 87.0618 39.179 86.8288 38.7812C86.6016 38.3835 86.2521 38.0824 85.7805 37.8778C85.3146 37.6676 84.7266 37.5625 84.0163 37.5625H81.5277V52H77.8374ZM87.2635 44.0568L91.6016 52H87.5277L83.2834 44.0568H87.2635ZM93.5874 52V34.5455H105.349V37.5881H97.2777V41.7472H104.744V44.7898H97.2777V48.9574H105.383V52H93.5874ZM117.751 39.5653C117.683 38.8778 117.391 38.3437 116.874 37.9631C116.357 37.5824 115.655 37.392 114.768 37.392C114.166 37.392 113.658 37.4773 113.243 37.6477C112.828 37.8125 112.51 38.0426 112.288 38.3381C112.072 38.6335 111.964 38.9688 111.964 39.3438C111.953 39.6562 112.018 39.929 112.161 40.1619C112.308 40.3949 112.51 40.5966 112.766 40.767C113.021 40.9318 113.317 41.0767 113.652 41.2017C113.987 41.321 114.345 41.4233 114.726 41.5085L116.294 41.8835C117.055 42.054 117.754 42.2812 118.391 42.5653C119.027 42.8494 119.578 43.1989 120.044 43.6136C120.51 44.0284 120.871 44.517 121.126 45.0795C121.388 45.642 121.521 46.2869 121.527 47.0142C121.521 48.0824 121.249 49.0085 120.709 49.7926C120.175 50.571 119.402 51.1761 118.391 51.608C117.385 52.0341 116.172 52.2472 114.751 52.2472C113.342 52.2472 112.115 52.0312 111.07 51.5994C110.03 51.1676 109.217 50.5284 108.632 49.6818C108.053 48.8295 107.749 47.7756 107.72 46.5199H111.291C111.331 47.1051 111.499 47.5937 111.794 47.9858C112.095 48.3722 112.496 48.6648 112.996 48.8636C113.501 49.0568 114.072 49.1534 114.709 49.1534C115.334 49.1534 115.876 49.0625 116.337 48.8807C116.803 48.6989 117.163 48.446 117.419 48.1222C117.675 47.7983 117.803 47.4261 117.803 47.0057C117.803 46.6136 117.686 46.2841 117.453 46.017C117.226 45.75 116.891 45.5227 116.447 45.3352C116.01 45.1477 115.473 44.9773 114.837 44.8239L112.936 44.3466C111.464 43.9886 110.303 43.429 109.45 42.6676C108.598 41.9062 108.175 40.8807 108.18 39.5909C108.175 38.5341 108.456 37.6108 109.024 36.821C109.598 36.0312 110.385 35.4148 111.385 34.9716C112.385 34.5284 113.521 34.3068 114.794 34.3068C116.089 34.3068 117.22 34.5284 118.186 34.9716C119.158 35.4148 119.913 36.0312 120.453 36.821C120.993 37.6108 121.271 38.5256 121.288 39.5653H117.751ZM133.478 39.5653C133.41 38.8778 133.117 38.3437 132.6 37.9631C132.083 37.5824 131.381 37.392 130.495 37.392C129.893 37.392 129.384 37.4773 128.969 37.6477C128.555 37.8125 128.237 38.0426 128.015 38.3381C127.799 38.6335 127.691 38.9688 127.691 39.3438C127.68 39.6562 127.745 39.929 127.887 40.1619C128.035 40.3949 128.237 40.5966 128.492 40.767C128.748 40.9318 129.043 41.0767 129.379 41.2017C129.714 41.321 130.072 41.4233 130.452 41.5085L132.021 41.8835C132.782 42.054 133.481 42.2812 134.117 42.5653C134.754 42.8494 135.305 43.1989 135.771 43.6136C136.237 44.0284 136.597 44.517 136.853 45.0795C137.114 45.642 137.248 46.2869 137.254 47.0142C137.248 48.0824 136.975 49.0085 136.435 49.7926C135.901 50.571 135.129 51.1761 134.117 51.608C133.112 52.0341 131.898 52.2472 130.478 52.2472C129.069 52.2472 127.842 52.0312 126.796 51.5994C125.756 51.1676 124.944 50.5284 124.359 49.6818C123.779 48.8295 123.475 47.7756 123.447 46.5199H127.018C127.058 47.1051 127.225 47.5937 127.521 47.9858C127.822 48.3722 128.222 48.6648 128.722 48.8636C129.228 49.0568 129.799 49.1534 130.435 49.1534C131.06 49.1534 131.603 49.0625 132.063 48.8807C132.529 48.6989 132.89 48.446 133.146 48.1222C133.401 47.7983 133.529 47.4261 133.529 47.0057C133.529 46.6136 133.413 46.2841 133.18 46.017C132.952 45.75 132.617 45.5227 132.174 45.3352C131.737 45.1477 131.2 44.9773 130.563 44.8239L128.663 44.3466C127.191 43.9886 126.029 43.429 125.177 42.6676C124.325 41.9062 123.901 40.8807 123.907 39.5909C123.901 38.5341 124.183 37.6108 124.751 36.821C125.325 36.0312 126.112 35.4148 127.112 34.9716C128.112 34.5284 129.248 34.3068 130.521 34.3068C131.816 34.3068 132.947 34.5284 133.913 34.9716C134.884 35.4148 135.64 36.0312 136.18 36.821C136.719 37.6108 136.998 38.5256 137.015 39.5653H133.478ZM142.346 52H138.391L144.417 34.5455H149.173L155.19 52H151.235L146.863 38.5341H146.727L142.346 52ZM142.099 45.1392H151.44V48.0199H142.099V45.1392ZM144.349 32.8239L142.337 32.7983C142.337 31.7131 142.604 30.8807 143.138 30.3011C143.673 29.7216 144.329 29.429 145.107 29.4233C145.505 29.4233 145.846 29.4886 146.13 29.6193C146.414 29.7443 146.673 29.892 146.906 30.0625C147.138 30.233 147.36 30.3835 147.57 30.5142C147.781 30.6392 148.008 30.7017 148.252 30.7017C148.582 30.696 148.832 30.5739 149.002 30.3352C149.178 30.0909 149.266 29.7727 149.266 29.3807L151.252 29.4403C151.241 30.5142 150.968 31.3437 150.434 31.929C149.9 32.5085 149.246 32.8011 148.474 32.8068C148.053 32.8125 147.698 32.75 147.408 32.6193C147.124 32.4886 146.874 32.3409 146.658 32.1761C146.442 32.0057 146.232 31.8551 146.028 31.7244C145.823 31.5937 145.593 31.5284 145.337 31.5284C145.042 31.5284 144.803 31.6449 144.621 31.8778C144.44 32.1108 144.349 32.4261 144.349 32.8239ZM172.51 43.2727C172.51 45.1761 172.149 46.7955 171.428 48.1307C170.712 49.4659 169.734 50.4858 168.496 51.1903C167.263 51.8892 165.876 52.2386 164.337 52.2386C162.786 52.2386 161.393 51.8864 160.161 51.1818C158.928 50.4773 157.953 49.4574 157.237 48.1222C156.521 46.7869 156.163 45.1705 156.163 43.2727C156.163 41.3693 156.521 39.75 157.237 38.4148C157.953 37.0795 158.928 36.0625 160.161 35.3636C161.393 34.6591 162.786 34.3068 164.337 34.3068C165.876 34.3068 167.263 34.6591 168.496 35.3636C169.734 36.0625 170.712 37.0795 171.428 38.4148C172.149 39.75 172.51 41.3693 172.51 43.2727ZM168.768 43.2727C168.768 42.0398 168.584 41 168.214 40.1534C167.851 39.3068 167.337 38.6648 166.672 38.2273C166.007 37.7898 165.229 37.571 164.337 37.571C163.445 37.571 162.666 37.7898 162.001 38.2273C161.337 38.6648 160.82 39.3068 160.45 40.1534C160.087 41 159.905 42.0398 159.905 43.2727C159.905 44.5057 160.087 45.5455 160.45 46.392C160.82 47.2386 161.337 47.8807 162.001 48.3182C162.666 48.7557 163.445 48.9744 164.337 48.9744C165.229 48.9744 166.007 48.7557 166.672 48.3182C167.337 47.8807 167.851 47.2386 168.214 46.392C168.584 45.5455 168.768 44.5057 168.768 43.2727ZM186.986 52H180.798V34.5455H187.037C188.793 34.5455 190.304 34.8949 191.571 35.5938C192.838 36.2869 193.813 37.2841 194.494 38.5852C195.182 39.8864 195.526 41.4432 195.526 43.2557C195.526 45.0739 195.182 46.6364 194.494 47.9432C193.813 49.25 192.832 50.2528 191.554 50.9517C190.281 51.6506 188.759 52 186.986 52ZM184.489 48.8381H186.832C187.923 48.8381 188.841 48.6449 189.585 48.2585C190.335 47.8665 190.898 47.2614 191.273 46.4432C191.653 45.6193 191.844 44.5568 191.844 43.2557C191.844 41.9659 191.653 40.9119 191.273 40.0938C190.898 39.2756 190.338 38.6733 189.594 38.2869C188.849 37.9006 187.932 37.7074 186.841 37.7074H184.489V48.8381ZM200.283 52H196.329L202.354 34.5455H207.11L213.127 52H209.173L204.8 38.5341H204.664L200.283 52ZM200.036 45.1392H209.377V48.0199H200.036V45.1392ZM236.822 43.2727C236.822 45.1761 236.462 46.7955 235.74 48.1307C235.024 49.4659 234.047 50.4858 232.808 51.1903C231.575 51.8892 230.189 52.2386 228.649 52.2386C227.098 52.2386 225.706 51.8864 224.473 51.1818C223.24 50.4773 222.266 49.4574 221.55 48.1222C220.834 46.7869 220.476 45.1705 220.476 43.2727C220.476 41.3693 220.834 39.75 221.55 38.4148C222.266 37.0795 223.24 36.0625 224.473 35.3636C225.706 34.6591 227.098 34.3068 228.649 34.3068C230.189 34.3068 231.575 34.6591 232.808 35.3636C234.047 36.0625 235.024 37.0795 235.74 38.4148C236.462 39.75 236.822 41.3693 236.822 43.2727ZM233.081 43.2727C233.081 42.0398 232.896 41 232.527 40.1534C232.163 39.3068 231.649 38.6648 230.984 38.2273C230.32 37.7898 229.541 37.571 228.649 37.571C227.757 37.571 226.979 37.7898 226.314 38.2273C225.649 38.6648 225.132 39.3068 224.763 40.1534C224.399 41 224.217 42.0398 224.217 43.2727C224.217 44.5057 224.399 45.5455 224.763 46.392C225.132 47.2386 225.649 47.8807 226.314 48.3182C226.979 48.7557 227.757 48.9744 228.649 48.9744C229.541 48.9744 230.32 48.7557 230.984 48.3182C231.649 47.8807 232.163 47.2386 232.527 46.392C232.896 45.5455 233.081 44.5057 233.081 43.2727ZM239.556 52V34.5455H246.545C247.829 34.5455 248.9 34.7358 249.758 35.1165C250.616 35.4972 251.261 36.0256 251.692 36.7017C252.124 37.3722 252.34 38.1449 252.34 39.0199C252.34 39.7017 252.204 40.3011 251.931 40.8182C251.658 41.3295 251.283 41.75 250.806 42.0795C250.335 42.4034 249.795 42.6335 249.187 42.7699V42.9403C249.852 42.9687 250.474 43.1562 251.053 43.5028C251.638 43.8494 252.113 44.3352 252.477 44.9602C252.84 45.5795 253.022 46.3182 253.022 47.1761C253.022 48.1023 252.792 48.929 252.332 49.6562C251.877 50.3778 251.204 50.9489 250.312 51.3693C249.42 51.7898 248.32 52 247.013 52H239.556ZM243.246 48.983H246.255C247.283 48.983 248.033 48.7869 248.505 48.3949C248.977 47.9972 249.212 47.4687 249.212 46.8097C249.212 46.3267 249.096 45.9006 248.863 45.5312C248.63 45.1619 248.298 44.8722 247.866 44.6619C247.44 44.4517 246.931 44.3466 246.34 44.3466H243.246V48.983ZM243.246 41.8494H245.982C246.488 41.8494 246.937 41.7614 247.329 41.5852C247.727 41.4034 248.039 41.1477 248.266 40.8182C248.499 40.4886 248.616 40.0938 248.616 39.6335C248.616 39.0028 248.391 38.4943 247.942 38.108C247.499 37.7216 246.869 37.5284 246.05 37.5284H243.246V41.8494ZM255.423 52V34.5455H262.31C263.628 34.5455 264.753 34.7812 265.685 35.2528C266.622 35.7187 267.335 36.3807 267.824 37.2386C268.318 38.0909 268.565 39.0937 268.565 40.2472C268.565 41.4062 268.315 42.4034 267.815 43.2386C267.315 44.0682 266.591 44.7045 265.642 45.1477C264.699 45.5909 263.557 45.8125 262.216 45.8125H257.605V42.8466H261.619C262.324 42.8466 262.909 42.75 263.375 42.5568C263.841 42.3636 264.188 42.0739 264.415 41.6875C264.648 41.3011 264.764 40.821 264.764 40.2472C264.764 39.6676 264.648 39.179 264.415 38.7812C264.188 38.3835 263.838 38.0824 263.366 37.8778C262.901 37.6676 262.313 37.5625 261.602 37.5625H259.114V52H255.423ZM264.849 44.0568L269.188 52H265.114L260.869 44.0568H264.849ZM274.182 52H270.227L276.253 34.5455H281.009L287.026 52H283.071L278.699 38.5341H278.562L274.182 52ZM273.935 45.1392H283.276V48.0199H273.935V45.1392Z" fill="white"/>
<path d="M343 42L328.75 31.3125C328.518 31.1366 328.33 30.9099 328.2 30.6498C328.07 30.3897 328.002 30.1033 328 29.8125V21.375C328 20.8777 328.198 20.4008 328.549 20.0492C328.901 19.6975 329.378 19.5 329.875 19.5H356.125C356.622 19.5 357.099 19.6975 357.451 20.0492C357.802 20.4008 358 20.8777 358 21.375V29.7187C357.998 30.0095 357.93 30.296 357.8 30.5561C357.67 30.8161 357.482 31.0429 357.25 31.2188L343 42Z" stroke="white" stroke-width="3" stroke-linecap="round" stroke-linejoin="round"/>
<path d="M343 42L328.75 52.6875C328.518 52.8634 328.33 53.0901 328.2 53.3502C328.07 53.6103 328.002 53.8967 328 54.1875V62.625C328 63.1223 328.198 63.5992 328.549 63.9508C328.901 64.3025 329.378 64.5 329.875 64.5H356.125C356.622 64.5 357.099 64.3025 357.451 63.9508C357.802 63.5992 358 63.1223 358 62.625V54.2812C357.998 53.9905 357.93 53.704 357.8 53.4439C357.67 53.1839 357.482 52.9571 357.25 52.7812L343 42Z" stroke="white" stroke-width="3" stroke-linecap="round" stroke-linejoin="round"/>
<path d="M330.508 32.625H355.398" stroke="white" stroke-width="3" stroke-linecap="round" stroke-linejoin="round"/>
<path d="M343 51.375V42" stroke="white" stroke-width="3" stroke-linecap="round" stroke-linejoin="round"/>
</svg>
