<svg width="213" height="84" viewBox="0 0 213 84" fill="none" xmlns="http://www.w3.org/2000/svg">
<path d="M0 0H213V84H0V0Z" fill="#BF8A30" fill-opacity="0.65"/>
<path d="M180.188 26.375H145.812C144.95 26.375 144.25 27.0746 144.25 27.9375V56.0625C144.25 56.9254 144.95 57.625 145.812 57.625H180.188C181.05 57.625 181.75 56.9254 181.75 56.0625V27.9375C181.75 27.0746 181.05 26.375 180.188 26.375Z" stroke="white" stroke-width="3" stroke-linecap="round" stroke-linejoin="round"/>
<path d="M144.25 49.8125L154.074 39.9883C154.22 39.8407 154.393 39.7234 154.584 39.6434C154.775 39.5634 154.98 39.5222 155.188 39.5222C155.395 39.5222 155.6 39.5634 155.791 39.6434C155.982 39.7234 156.155 39.8407 156.301 39.9883L165.012 48.6993C165.157 48.8469 165.33 48.9641 165.522 49.0442C165.713 49.1242 165.918 49.1654 166.125 49.1654C166.332 49.1654 166.537 49.1242 166.728 49.0442C166.92 48.9641 167.093 48.8469 167.238 48.6993L171.262 44.6758C171.407 44.5282 171.58 44.4109 171.772 44.3309C171.963 44.2509 172.168 44.2097 172.375 44.2097C172.582 44.2097 172.787 44.2509 172.978 44.3309C173.17 44.4109 173.343 44.5282 173.488 44.6758L181.75 52.9375" stroke="white" stroke-width="3" stroke-linecap="round" stroke-linejoin="round"/>
<path d="M168.469 38.875C169.763 38.875 170.812 37.8257 170.812 36.5312C170.812 35.2368 169.763 34.1875 168.469 34.1875C167.174 34.1875 166.125 35.2368 166.125 36.5312C166.125 37.8257 167.174 38.875 168.469 38.875Z" fill="white"/>
<path d="M21.0909 40.1875C20.9716 39.7727 20.804 39.4062 20.5881 39.0881C20.3722 38.7642 20.108 38.4915 19.7955 38.2699C19.4886 38.0426 19.1364 37.8693 18.7386 37.75C18.3466 37.6307 17.9119 37.571 17.4347 37.571C16.5426 37.571 15.7585 37.7926 15.0824 38.2358C14.4119 38.679 13.8892 39.3239 13.5142 40.1705C13.1392 41.0114 12.9517 42.0398 12.9517 43.2557C12.9517 44.4716 13.1364 45.5057 13.5057 46.358C13.875 47.2102 14.3977 47.8608 15.0739 48.3097C15.75 48.7528 16.5483 48.9744 17.4688 48.9744C18.304 48.9744 19.017 48.8267 19.608 48.5312C20.2045 48.2301 20.6591 47.8068 20.9716 47.2614C21.2898 46.7159 21.4489 46.071 21.4489 45.3267L22.1989 45.4375H17.6989V42.6591H25.0028V44.858C25.0028 46.392 24.679 47.7102 24.0312 48.8125C23.3835 49.9091 22.4915 50.7557 21.3551 51.3523C20.2188 51.9432 18.9176 52.2386 17.4517 52.2386C15.8153 52.2386 14.3778 51.8778 13.1392 51.1562C11.9006 50.429 10.9347 49.3977 10.2415 48.0625C9.55398 46.7216 9.21023 45.1307 9.21023 43.2898C9.21023 41.875 9.41477 40.6136 9.82386 39.5057C10.2386 38.392 10.8182 37.4489 11.5625 36.6761C12.3068 35.9034 13.1733 35.3153 14.1619 34.9119C15.1506 34.5085 16.2216 34.3068 17.375 34.3068C18.3636 34.3068 19.2841 34.4517 20.1364 34.7415C20.9886 35.0256 21.7443 35.429 22.4034 35.9517C23.0682 36.4744 23.6108 37.0966 24.0312 37.8182C24.4517 38.5341 24.7216 39.3239 24.8409 40.1875H21.0909ZM30.2443 52H26.2898L32.3153 34.5455H37.071L43.0881 52H39.1335L34.7614 38.5341H34.625L30.2443 52ZM29.9972 45.1392H39.3381V48.0199H29.9972V45.1392ZM45.1889 52V34.5455H48.8793V48.9574H56.3622V52H45.1889ZM58.8061 52V34.5455H70.5675V37.5881H62.4964V41.7472H69.9624V44.7898H62.4964V48.9574H70.6016V52H58.8061ZM73.5014 52V34.5455H80.3878C81.706 34.5455 82.831 34.7812 83.7628 35.2528C84.7003 35.7187 85.4134 36.3807 85.902 37.2386C86.3963 38.0909 86.6435 39.0937 86.6435 40.2472C86.6435 41.4062 86.3935 42.4034 85.8935 43.2386C85.3935 44.0682 84.669 44.7045 83.7202 45.1477C82.777 45.5909 81.6349 45.8125 80.294 45.8125H75.6832V42.8466H79.6974C80.402 42.8466 80.9872 42.75 81.4531 42.5568C81.919 42.3636 82.2656 42.0739 82.4929 41.6875C82.7259 41.3011 82.8423 40.821 82.8423 40.2472C82.8423 39.6676 82.7259 39.179 82.4929 38.7812C82.2656 38.3835 81.9162 38.0824 81.4446 37.8778C80.9787 37.6676 80.3906 37.5625 79.6804 37.5625H77.1918V52H73.5014ZM82.9276 44.0568L87.2656 52H83.1918L78.9474 44.0568H82.9276ZM92.9418 34.5455V52H89.2514V34.5455H92.9418ZM98.9865 52H95.032L101.058 34.5455H105.813L111.83 52H107.876L103.504 38.5341H103.367L98.9865 52ZM98.7393 45.1392H108.08V48.0199H98.7393V45.1392Z" fill="white"/>
</svg>
