<svg width="325" height="84" viewBox="0 0 325 84" fill="none" xmlns="http://www.w3.org/2000/svg">
<path d="M0 0H325V84H0V0Z" fill="#BF8A30"/>
<path d="M302.188 26.375H267.812C266.95 26.375 266.25 27.0746 266.25 27.9375V56.0625C266.25 56.9254 266.95 57.625 267.812 57.625H302.188C303.05 57.625 303.75 56.9254 303.75 56.0625V27.9375C303.75 27.0746 303.05 26.375 302.188 26.375Z" stroke="white" stroke-width="3" stroke-linecap="round" stroke-linejoin="round"/>
<path d="M266.25 49.8125L276.074 39.9883C276.22 39.8407 276.393 39.7234 276.584 39.6434C276.775 39.5634 276.98 39.5222 277.188 39.5222C277.395 39.5222 277.6 39.5634 277.791 39.6434C277.982 39.7234 278.155 39.8407 278.301 39.9883L287.012 48.6993C287.157 48.8469 287.33 48.9641 287.522 49.0442C287.713 49.1242 287.918 49.1654 288.125 49.1654C288.332 49.1654 288.537 49.1242 288.728 49.0442C288.92 48.9641 289.093 48.8469 289.238 48.6993L293.262 44.6758C293.407 44.5282 293.58 44.4109 293.772 44.3309C293.963 44.2509 294.168 44.2097 294.375 44.2097C294.582 44.2097 294.787 44.2509 294.978 44.3309C295.17 44.4109 295.343 44.5282 295.488 44.6758L303.75 52.9375" stroke="white" stroke-width="3" stroke-linecap="round" stroke-linejoin="round"/>
<path d="M290.469 38.875C291.763 38.875 292.812 37.8257 292.812 36.5312C292.812 35.2368 291.763 34.1875 290.469 34.1875C289.174 34.1875 288.125 35.2368 288.125 36.5312C288.125 37.8257 289.174 38.875 290.469 38.875Z" fill="white"/>
<path d="M28.0909 40.1875C27.9716 39.7727 27.804 39.4062 27.5881 39.0881C27.3722 38.7642 27.108 38.4915 26.7955 38.2699C26.4886 38.0426 26.1364 37.8693 25.7386 37.75C25.3466 37.6307 24.9119 37.571 24.4347 37.571C23.5426 37.571 22.7585 37.7926 22.0824 38.2358C21.4119 38.679 20.8892 39.3239 20.5142 40.1705C20.1392 41.0114 19.9517 42.0398 19.9517 43.2557C19.9517 44.4716 20.1364 45.5057 20.5057 46.358C20.875 47.2102 21.3977 47.8608 22.0739 48.3097C22.75 48.7528 23.5483 48.9744 24.4688 48.9744C25.304 48.9744 26.017 48.8267 26.608 48.5312C27.2045 48.2301 27.6591 47.8068 27.9716 47.2614C28.2898 46.7159 28.4489 46.071 28.4489 45.3267L29.1989 45.4375H24.6989V42.6591H32.0028V44.858C32.0028 46.392 31.679 47.7102 31.0312 48.8125C30.3835 49.9091 29.4915 50.7557 28.3551 51.3523C27.2188 51.9432 25.9176 52.2386 24.4517 52.2386C22.8153 52.2386 21.3778 51.8778 20.1392 51.1562C18.9006 50.429 17.9347 49.3977 17.2415 48.0625C16.554 46.7216 16.2102 45.1307 16.2102 43.2898C16.2102 41.875 16.4148 40.6136 16.8239 39.5057C17.2386 38.392 17.8182 37.4489 18.5625 36.6761C19.3068 35.9034 20.1733 35.3153 21.1619 34.9119C22.1506 34.5085 23.2216 34.3068 24.375 34.3068C25.3636 34.3068 26.2841 34.4517 27.1364 34.7415C27.9886 35.0256 28.7443 35.429 29.4034 35.9517C30.0682 36.4744 30.6108 37.0966 31.0312 37.8182C31.4517 38.5341 31.7216 39.3239 31.8409 40.1875H28.0909ZM37.2443 52H33.2898L39.3153 34.5455H44.071L50.0881 52H46.1335L41.7614 38.5341H41.625L37.2443 52ZM36.9972 45.1392H46.3381V48.0199H36.9972V45.1392ZM52.1889 52V34.5455H55.8793V48.9574H63.3622V52H52.1889ZM65.8061 52V34.5455H77.5675V37.5881H69.4964V41.7472H76.9624V44.7898H69.4964V48.9574H77.6016V52H65.8061ZM80.5014 52V34.5455H87.3878C88.706 34.5455 89.831 34.7812 90.7628 35.2528C91.7003 35.7187 92.4134 36.3807 92.902 37.2386C93.3963 38.0909 93.6435 39.0937 93.6435 40.2472C93.6435 41.4062 93.3935 42.4034 92.8935 43.2386C92.3935 44.0682 91.669 44.7045 90.7202 45.1477C89.777 45.5909 88.6349 45.8125 87.294 45.8125H82.6832V42.8466H86.6974C87.402 42.8466 87.9872 42.75 88.4531 42.5568C88.919 42.3636 89.2656 42.0739 89.4929 41.6875C89.7259 41.3011 89.8423 40.821 89.8423 40.2472C89.8423 39.6676 89.7259 39.179 89.4929 38.7812C89.2656 38.3835 88.9162 38.0824 88.4446 37.8778C87.9787 37.6676 87.3906 37.5625 86.6804 37.5625H84.1918V52H80.5014ZM89.9276 44.0568L94.2656 52H90.1918L85.9474 44.0568H89.9276ZM99.9418 34.5455V52H96.2514V34.5455H99.9418ZM105.987 52H102.032L108.058 34.5455H112.813L118.83 52H114.876L110.504 38.5341H110.367L105.987 52ZM105.739 45.1392H115.08V48.0199H105.739V45.1392ZM130.001 39.5653C129.933 38.8778 129.641 38.3437 129.124 37.9631C128.607 37.5824 127.905 37.392 127.018 37.392C126.416 37.392 125.908 37.4773 125.493 37.6477C125.078 37.8125 124.76 38.0426 124.538 38.3381C124.322 38.6335 124.214 38.9688 124.214 39.3438C124.203 39.6562 124.268 39.929 124.411 40.1619C124.558 40.3949 124.76 40.5966 125.016 40.767C125.271 40.9318 125.567 41.0767 125.902 41.2017C126.237 41.321 126.595 41.4233 126.976 41.5085L128.544 41.8835C129.305 42.054 130.004 42.2812 130.641 42.5653C131.277 42.8494 131.828 43.1989 132.294 43.6136C132.76 44.0284 133.121 44.517 133.376 45.0795C133.638 45.642 133.771 46.2869 133.777 47.0142C133.771 48.0824 133.499 49.0085 132.959 49.7926C132.425 50.571 131.652 51.1761 130.641 51.608C129.635 52.0341 128.422 52.2472 127.001 52.2472C125.592 52.2472 124.365 52.0312 123.32 51.5994C122.28 51.1676 121.467 50.5284 120.882 49.6818C120.303 48.8295 119.999 47.7756 119.97 46.5199H123.541C123.581 47.1051 123.749 47.5937 124.044 47.9858C124.345 48.3722 124.746 48.6648 125.246 48.8636C125.751 49.0568 126.322 49.1534 126.959 49.1534C127.584 49.1534 128.126 49.0625 128.587 48.8807C129.053 48.6989 129.413 48.446 129.669 48.1222C129.925 47.7983 130.053 47.4261 130.053 47.0057C130.053 46.6136 129.936 46.2841 129.703 46.017C129.476 45.75 129.141 45.5227 128.697 45.3352C128.26 45.1477 127.723 44.9773 127.087 44.8239L125.186 44.3466C123.714 43.9886 122.553 43.429 121.7 42.6676C120.848 41.9062 120.425 40.8807 120.43 39.5909C120.425 38.5341 120.706 37.6108 121.274 36.821C121.848 36.0312 122.635 35.4148 123.635 34.9716C124.635 34.5284 125.771 34.3068 127.044 34.3068C128.339 34.3068 129.47 34.5284 130.436 34.9716C131.408 35.4148 132.163 36.0312 132.703 36.821C133.243 37.6108 133.521 38.5256 133.538 39.5653H130.001ZM141.814 34.5455H146.365L151.172 46.2727H151.376L156.183 34.5455H160.734V52H157.155V40.6392H157.01L152.493 51.9148H150.055L145.538 40.5966H145.393V52H141.814V34.5455ZM163.775 52V34.5455H175.536V37.5881H167.465V41.7472H174.931V44.7898H167.465V48.9574H175.57V52H163.775ZM193.07 34.5455V52H189.882L182.288 41.0142H182.161V52H178.47V34.5455H181.709L189.243 45.5227H189.396V34.5455H193.07ZM205.587 39.5653C205.519 38.8778 205.227 38.3437 204.71 37.9631C204.192 37.5824 203.491 37.392 202.604 37.392C202.002 37.392 201.494 37.4773 201.079 37.6477C200.664 37.8125 200.346 38.0426 200.124 38.3381C199.908 38.6335 199.8 38.9688 199.8 39.3438C199.789 39.6562 199.854 39.929 199.996 40.1619C200.144 40.3949 200.346 40.5966 200.602 40.767C200.857 40.9318 201.153 41.0767 201.488 41.2017C201.823 41.321 202.181 41.4233 202.562 41.5085L204.13 41.8835C204.891 42.054 205.59 42.2812 206.227 42.5653C206.863 42.8494 207.414 43.1989 207.88 43.6136C208.346 44.0284 208.707 44.517 208.962 45.0795C209.224 45.642 209.357 46.2869 209.363 47.0142C209.357 48.0824 209.085 49.0085 208.545 49.7926C208.011 50.571 207.238 51.1761 206.227 51.608C205.221 52.0341 204.008 52.2472 202.587 52.2472C201.178 52.2472 199.951 52.0312 198.906 51.5994C197.866 51.1676 197.053 50.5284 196.468 49.6818C195.888 48.8295 195.585 47.7756 195.556 46.5199H199.127C199.167 47.1051 199.335 47.5937 199.63 47.9858C199.931 48.3722 200.332 48.6648 200.832 48.8636C201.337 49.0568 201.908 49.1534 202.545 49.1534C203.17 49.1534 203.712 49.0625 204.173 48.8807C204.638 48.6989 204.999 48.446 205.255 48.1222C205.511 47.7983 205.638 47.4261 205.638 47.0057C205.638 46.6136 205.522 46.2841 205.289 46.017C205.062 45.75 204.727 45.5227 204.283 45.3352C203.846 45.1477 203.309 44.9773 202.673 44.8239L200.772 44.3466C199.3 43.9886 198.138 43.429 197.286 42.6676C196.434 41.9062 196.011 40.8807 196.016 39.5909C196.011 38.5341 196.292 37.6108 196.86 36.821C197.434 36.0312 198.221 35.4148 199.221 34.9716C200.221 34.5284 201.357 34.3068 202.63 34.3068C203.925 34.3068 205.056 34.5284 206.022 34.9716C206.994 35.4148 207.749 36.0312 208.289 36.821C208.829 37.6108 209.107 38.5256 209.124 39.5653H205.587ZM214.455 52H210.501L216.526 34.5455H221.282L227.299 52H223.344L218.972 38.5341H218.836L214.455 52ZM214.208 45.1392H223.549V48.0199H214.208V45.1392ZM233.09 34.5455V52H229.4V34.5455H233.09ZM245.595 39.5653C245.527 38.8778 245.234 38.3437 244.717 37.9631C244.2 37.5824 243.499 37.392 242.612 37.392C242.01 37.392 241.501 37.4773 241.087 37.6477C240.672 37.8125 240.354 38.0426 240.132 38.3381C239.916 38.6335 239.808 38.9688 239.808 39.3438C239.797 39.6562 239.862 39.929 240.004 40.1619C240.152 40.3949 240.354 40.5966 240.609 40.767C240.865 40.9318 241.161 41.0767 241.496 41.2017C241.831 41.321 242.189 41.4233 242.57 41.5085L244.138 41.8835C244.899 42.054 245.598 42.2812 246.234 42.5653C246.871 42.8494 247.422 43.1989 247.888 43.6136C248.354 44.0284 248.714 44.517 248.97 45.0795C249.232 45.642 249.365 46.2869 249.371 47.0142C249.365 48.0824 249.092 49.0085 248.553 49.7926C248.018 50.571 247.246 51.1761 246.234 51.608C245.229 52.0341 244.016 52.2472 242.595 52.2472C241.186 52.2472 239.959 52.0312 238.913 51.5994C237.874 51.1676 237.061 50.5284 236.476 49.6818C235.896 48.8295 235.592 47.7756 235.564 46.5199H239.135C239.175 47.1051 239.342 47.5937 239.638 47.9858C239.939 48.3722 240.339 48.6648 240.839 48.8636C241.345 49.0568 241.916 49.1534 242.553 49.1534C243.178 49.1534 243.72 49.0625 244.18 48.8807C244.646 48.6989 245.007 48.446 245.263 48.1222C245.518 47.7983 245.646 47.4261 245.646 47.0057C245.646 46.6136 245.53 46.2841 245.297 46.017C245.07 45.75 244.734 45.5227 244.291 45.3352C243.854 45.1477 243.317 44.9773 242.68 44.8239L240.78 44.3466C239.308 43.9886 238.146 43.429 237.294 42.6676C236.442 41.9062 236.018 40.8807 236.024 39.5909C236.018 38.5341 236.3 37.6108 236.868 36.821C237.442 36.0312 238.229 35.4148 239.229 34.9716C240.229 34.5284 241.365 34.3068 242.638 34.3068C243.933 34.3068 245.064 34.5284 246.03 34.9716C247.001 35.4148 247.757 36.0312 248.297 36.821C248.837 37.6108 249.115 38.5256 249.132 39.5653H245.595Z" fill="white"/>
</svg>
