<svg width="378" height="92" viewBox="0 0 378 92" fill="none" xmlns="http://www.w3.org/2000/svg">
<g filter="url(#filter0_d_41_20)">
<path d="M-2 0H374V84H-2V0Z" fill="#BF8A30" fill-opacity="0.65" shape-rendering="crispEdges"/>
</g>
<path d="M297.173 58.5H335.135" stroke="white" stroke-width="2" stroke-linecap="round" stroke-linejoin="round"/>
<path d="M318.865 58.5V25.5C318.865 25.1022 318.723 24.7206 318.468 24.4393C318.214 24.158 317.869 24 317.51 24H301.24C300.881 24 300.536 24.158 300.282 24.4393C300.027 24.7206 299.885 25.1022 299.885 25.5V58.5" stroke="white" stroke-width="2" stroke-linecap="round" stroke-linejoin="round"/>
<path d="M332.423 58.5V37.5C332.423 37.1022 332.28 36.7206 332.026 36.4393C331.772 36.158 331.427 36 331.067 36H318.865" stroke="white" stroke-width="2" stroke-linecap="round" stroke-linejoin="round"/>
<path d="M305.308 31.5H310.731" stroke="white" stroke-width="2" stroke-linecap="round" stroke-linejoin="round"/>
<path d="M308.019 43.5H313.442" stroke="white" stroke-width="2" stroke-linecap="round" stroke-linejoin="round"/>
<path d="M305.308 51H310.731" stroke="white" stroke-width="2" stroke-linecap="round" stroke-linejoin="round"/>
<path d="M324.288 51H327" stroke="white" stroke-width="2" stroke-linecap="round" stroke-linejoin="round"/>
<path d="M324.288 43.5H327" stroke="white" stroke-width="2" stroke-linecap="round" stroke-linejoin="round"/>
<path d="M60.7727 41.3636C60.7727 43.8485 60.3182 45.9848 59.4091 47.7727C58.5 49.553 57.2538 50.9242 55.6705 51.8864C54.0947 52.8409 52.303 53.3182 50.2955 53.3182C48.2803 53.3182 46.4811 52.8409 44.8977 51.8864C43.322 50.9242 42.0795 49.5492 41.1705 47.7614C40.2614 45.9735 39.8068 43.8409 39.8068 41.3636C39.8068 38.8788 40.2614 36.7462 41.1705 34.9659C42.0795 33.178 43.322 31.8068 44.8977 30.8523C46.4811 29.8902 48.2803 29.4091 50.2955 29.4091C52.303 29.4091 54.0947 29.8902 55.6705 30.8523C57.2538 31.8068 58.5 33.178 59.4091 34.9659C60.3182 36.7462 60.7727 38.8788 60.7727 41.3636ZM57.2955 41.3636C57.2955 39.4697 56.9886 37.875 56.375 36.5795C55.7689 35.2765 54.9356 34.2917 53.875 33.625C52.822 32.9508 51.6288 32.6136 50.2955 32.6136C48.9545 32.6136 47.7576 32.9508 46.7045 33.625C45.6515 34.2917 44.8182 35.2765 44.2045 36.5795C43.5985 37.875 43.2955 39.4697 43.2955 41.3636C43.2955 43.2576 43.5985 44.8561 44.2045 46.1591C44.8182 47.4545 45.6515 48.4394 46.7045 49.1136C47.7576 49.7803 48.9545 50.1136 50.2955 50.1136C51.6288 50.1136 52.822 49.7803 53.875 49.1136C54.9356 48.4394 55.7689 47.4545 56.375 46.1591C56.9886 44.8561 57.2955 43.2576 57.2955 41.3636ZM72.2301 53.3523C70.5407 53.3523 69.0862 52.9697 67.8665 52.2045C66.6544 51.4318 65.7225 50.3674 65.071 49.0114C64.4195 47.6553 64.0938 46.1023 64.0938 44.3523C64.0938 42.5795 64.4271 41.0152 65.0938 39.6591C65.7604 38.2955 66.6998 37.2311 67.9119 36.4659C69.1241 35.7008 70.5521 35.3182 72.196 35.3182C73.5218 35.3182 74.7036 35.5644 75.7415 36.0568C76.7794 36.5417 77.6165 37.2235 78.2528 38.1023C78.8968 38.9811 79.2794 40.0076 79.4006 41.1818H76.0938C75.9119 40.3636 75.4953 39.6591 74.8438 39.0682C74.1998 38.4773 73.3362 38.1818 72.2528 38.1818C71.3059 38.1818 70.4763 38.4318 69.7642 38.9318C69.0597 39.4242 68.5104 40.1288 68.1165 41.0455C67.7225 41.9545 67.5256 43.0303 67.5256 44.2727C67.5256 45.5455 67.7188 46.6439 68.1051 47.5682C68.4915 48.4924 69.0369 49.2083 69.7415 49.7159C70.4536 50.2235 71.2907 50.4773 72.2528 50.4773C72.8968 50.4773 73.4801 50.3598 74.0028 50.125C74.5331 49.8826 74.9763 49.5379 75.3324 49.0909C75.696 48.6439 75.9498 48.1061 76.0938 47.4773H79.4006C79.2794 48.6061 78.9119 49.6136 78.2983 50.5C77.6847 51.3864 76.8627 52.0833 75.8324 52.5909C74.8097 53.0985 73.6089 53.3523 72.2301 53.3523ZM90.5568 53.3523C88.8371 53.3523 87.3561 52.9848 86.1136 52.25C84.8788 51.5076 83.9242 50.4659 83.25 49.125C82.5833 47.7765 82.25 46.197 82.25 44.3864C82.25 42.5985 82.5833 41.0227 83.25 39.6591C83.9242 38.2955 84.8636 37.2311 86.0682 36.4659C87.2803 35.7008 88.697 35.3182 90.3182 35.3182C91.303 35.3182 92.2576 35.4811 93.1818 35.8068C94.1061 36.1326 94.9356 36.6439 95.6705 37.3409C96.4053 38.0379 96.9848 38.9432 97.4091 40.0568C97.8333 41.1629 98.0455 42.5076 98.0455 44.0909V45.2955H84.1705V42.75H94.7159C94.7159 41.8561 94.5341 41.0644 94.1705 40.375C93.8068 39.678 93.2955 39.1288 92.6364 38.7273C91.9848 38.3258 91.2197 38.125 90.3409 38.125C89.3864 38.125 88.553 38.3598 87.8409 38.8295C87.1364 39.2917 86.5909 39.8977 86.2045 40.6477C85.8258 41.3902 85.6364 42.197 85.6364 43.0682V45.0568C85.6364 46.2235 85.8409 47.2159 86.25 48.0341C86.6667 48.8523 87.2462 49.4773 87.9886 49.9091C88.7311 50.3333 89.5985 50.5455 90.5909 50.5455C91.2348 50.5455 91.822 50.4545 92.3523 50.2727C92.8826 50.0833 93.3409 49.803 93.7273 49.4318C94.1136 49.0606 94.4091 48.6023 94.6136 48.0568L97.8295 48.6364C97.572 49.5833 97.1098 50.4129 96.4432 51.125C95.7841 51.8295 94.9545 52.3788 93.9545 52.7727C92.9621 53.1591 91.8295 53.3523 90.5568 53.3523ZM106.895 53.3864C105.789 53.3864 104.789 53.1818 103.895 52.7727C103.001 52.3561 102.293 51.7538 101.77 50.9659C101.255 50.178 100.997 49.2121 100.997 48.0682C100.997 47.0833 101.187 46.2727 101.565 45.6364C101.944 45 102.455 44.4962 103.099 44.125C103.743 43.7538 104.463 43.4735 105.259 43.2841C106.054 43.0947 106.865 42.9508 107.69 42.8523C108.736 42.7311 109.584 42.6326 110.236 42.5568C110.887 42.4735 111.361 42.3409 111.656 42.1591C111.952 41.9773 112.099 41.6818 112.099 41.2727V41.1932C112.099 40.2008 111.819 39.4318 111.259 38.8864C110.705 38.3409 109.88 38.0682 108.781 38.0682C107.637 38.0682 106.736 38.322 106.077 38.8295C105.425 39.3295 104.974 39.8864 104.724 40.5L101.531 39.7727C101.91 38.7121 102.463 37.8561 103.19 37.2045C103.925 36.5455 104.77 36.0682 105.724 35.7727C106.679 35.4697 107.683 35.3182 108.736 35.3182C109.433 35.3182 110.171 35.4015 110.952 35.5682C111.74 35.7273 112.474 36.0227 113.156 36.4545C113.846 36.8864 114.41 37.5038 114.849 38.3068C115.289 39.1023 115.509 40.1364 115.509 41.4091V53H112.19V50.6136H112.054C111.834 51.053 111.505 51.4848 111.065 51.9091C110.626 52.3333 110.062 52.6856 109.372 52.9659C108.683 53.2462 107.857 53.3864 106.895 53.3864ZM107.634 50.6591C108.573 50.6591 109.376 50.4735 110.043 50.1023C110.717 49.7311 111.228 49.2462 111.577 48.6477C111.933 48.0417 112.111 47.3939 112.111 46.7045V44.4545C111.99 44.5758 111.755 44.6894 111.406 44.7955C111.065 44.8939 110.675 44.9811 110.236 45.0568C109.796 45.125 109.368 45.1894 108.952 45.25C108.535 45.303 108.187 45.3485 107.906 45.3864C107.247 45.4697 106.645 45.6098 106.099 45.8068C105.562 46.0038 105.13 46.2879 104.804 46.6591C104.486 47.0227 104.327 47.5076 104.327 48.1136C104.327 48.9545 104.637 49.5909 105.259 50.0227C105.88 50.447 106.671 50.6591 107.634 50.6591ZM123.432 42.6364V53H120.034V35.5455H123.295V38.3864H123.511C123.913 37.4621 124.542 36.7197 125.398 36.1591C126.261 35.5985 127.348 35.3182 128.659 35.3182C129.848 35.3182 130.89 35.5682 131.784 36.0682C132.678 36.5606 133.371 37.2955 133.864 38.2727C134.356 39.25 134.602 40.4583 134.602 41.8977V53H131.205V42.3068C131.205 41.0417 130.875 40.053 130.216 39.3409C129.557 38.6212 128.652 38.2614 127.5 38.2614C126.712 38.2614 126.011 38.4318 125.398 38.7727C124.792 39.1136 124.311 39.6136 123.955 40.2727C123.606 40.9242 123.432 41.7121 123.432 42.6364ZM167.23 37.2955H163.685C163.548 36.5379 163.295 35.8712 162.923 35.2955C162.552 34.7197 162.098 34.2311 161.56 33.8295C161.022 33.428 160.42 33.125 159.753 32.9205C159.094 32.7159 158.393 32.6136 157.651 32.6136C156.31 32.6136 155.109 32.9508 154.048 33.625C152.995 34.2992 152.162 35.2879 151.548 36.5909C150.942 37.8939 150.639 39.4848 150.639 41.3636C150.639 43.2576 150.942 44.8561 151.548 46.1591C152.162 47.4621 152.999 48.447 154.06 49.1136C155.12 49.7803 156.313 50.1136 157.639 50.1136C158.374 50.1136 159.071 50.0152 159.73 49.8182C160.397 49.6136 160.999 49.3144 161.537 48.9205C162.075 48.5265 162.529 48.0455 162.901 47.4773C163.279 46.9015 163.541 46.2424 163.685 45.5L167.23 45.5114C167.041 46.6553 166.673 47.7083 166.128 48.6705C165.59 49.625 164.897 50.4508 164.048 51.1477C163.207 51.8371 162.245 52.3712 161.162 52.75C160.079 53.1288 158.897 53.3182 157.616 53.3182C155.601 53.3182 153.806 52.8409 152.23 51.8864C150.654 50.9242 149.412 49.5492 148.503 47.7614C147.601 45.9735 147.151 43.8409 147.151 41.3636C147.151 38.8788 147.605 36.7462 148.514 34.9659C149.423 33.178 150.666 31.8068 152.241 30.8523C153.817 29.8902 155.609 29.4091 157.616 29.4091C158.851 29.4091 160.003 29.5871 161.071 29.9432C162.147 30.2917 163.113 30.8068 163.969 31.4886C164.825 32.1629 165.533 32.9886 166.094 33.9659C166.654 34.9356 167.033 36.0455 167.23 37.2955ZM176.239 53.3864C175.133 53.3864 174.133 53.1818 173.239 52.7727C172.345 52.3561 171.636 51.7538 171.114 50.9659C170.598 50.178 170.341 49.2121 170.341 48.0682C170.341 47.0833 170.53 46.2727 170.909 45.6364C171.288 45 171.799 44.4962 172.443 44.125C173.087 43.7538 173.807 43.4735 174.602 43.2841C175.398 43.0947 176.208 42.9508 177.034 42.8523C178.08 42.7311 178.928 42.6326 179.58 42.5568C180.231 42.4735 180.705 42.3409 181 42.1591C181.295 41.9773 181.443 41.6818 181.443 41.2727V41.1932C181.443 40.2008 181.163 39.4318 180.602 38.8864C180.049 38.3409 179.223 38.0682 178.125 38.0682C176.981 38.0682 176.08 38.322 175.42 38.8295C174.769 39.3295 174.318 39.8864 174.068 40.5L170.875 39.7727C171.254 38.7121 171.807 37.8561 172.534 37.2045C173.269 36.5455 174.114 36.0682 175.068 35.7727C176.023 35.4697 177.027 35.3182 178.08 35.3182C178.777 35.3182 179.515 35.4015 180.295 35.5682C181.083 35.7273 181.818 36.0227 182.5 36.4545C183.189 36.8864 183.754 37.5038 184.193 38.3068C184.633 39.1023 184.852 40.1364 184.852 41.4091V53H181.534V50.6136H181.398C181.178 51.053 180.848 51.4848 180.409 51.9091C179.97 52.3333 179.405 52.6856 178.716 52.9659C178.027 53.2462 177.201 53.3864 176.239 53.3864ZM176.977 50.6591C177.917 50.6591 178.72 50.4735 179.386 50.1023C180.061 49.7311 180.572 49.2462 180.92 48.6477C181.277 48.0417 181.455 47.3939 181.455 46.7045V44.4545C181.333 44.5758 181.098 44.6894 180.75 44.7955C180.409 44.8939 180.019 44.9811 179.58 45.0568C179.14 45.125 178.712 45.1894 178.295 45.25C177.879 45.303 177.53 45.3485 177.25 45.3864C176.591 45.4697 175.989 45.6098 175.443 45.8068C174.905 46.0038 174.473 46.2879 174.148 46.6591C173.83 47.0227 173.67 47.5076 173.67 48.1136C173.67 48.9545 173.981 49.5909 174.602 50.0227C175.223 50.447 176.015 50.6591 176.977 50.6591ZM202.457 39.8068L199.378 40.3523C199.249 39.9583 199.045 39.5833 198.764 39.2273C198.491 38.8712 198.12 38.5795 197.651 38.3523C197.181 38.125 196.594 38.0114 195.889 38.0114C194.927 38.0114 194.124 38.2273 193.48 38.6591C192.836 39.0833 192.514 39.6326 192.514 40.3068C192.514 40.8902 192.73 41.3598 193.162 41.7159C193.594 42.072 194.291 42.3636 195.253 42.5909L198.026 43.2273C199.632 43.5985 200.829 44.1705 201.616 44.9432C202.404 45.7159 202.798 46.7197 202.798 47.9545C202.798 49 202.495 49.9318 201.889 50.75C201.291 51.5606 200.454 52.197 199.378 52.6591C198.31 53.1212 197.071 53.3523 195.662 53.3523C193.707 53.3523 192.113 52.9356 190.878 52.1023C189.643 51.2614 188.885 50.0682 188.605 48.5227L191.889 48.0227C192.094 48.8788 192.514 49.5265 193.151 49.9659C193.787 50.3977 194.616 50.6136 195.639 50.6136C196.753 50.6136 197.643 50.3826 198.31 49.9205C198.976 49.4508 199.31 48.8788 199.31 48.2045C199.31 47.6591 199.105 47.2008 198.696 46.8295C198.295 46.4583 197.677 46.178 196.844 45.9886L193.889 45.3409C192.26 44.9697 191.056 44.3788 190.276 43.5682C189.503 42.7576 189.116 41.7311 189.116 40.4886C189.116 39.4583 189.404 38.5568 189.98 37.7841C190.556 37.0114 191.351 36.4091 192.366 35.9773C193.382 35.5379 194.545 35.3182 195.855 35.3182C197.741 35.3182 199.226 35.7273 200.31 36.5455C201.393 37.3561 202.109 38.4432 202.457 39.8068ZM214.682 35.5455V38.2727H205.148V35.5455H214.682ZM207.705 31.3636H211.102V47.875C211.102 48.5341 211.201 49.0303 211.398 49.3636C211.595 49.6894 211.848 49.9129 212.159 50.0341C212.477 50.1477 212.822 50.2045 213.193 50.2045C213.466 50.2045 213.705 50.1856 213.909 50.1477C214.114 50.1098 214.273 50.0795 214.386 50.0568L215 52.8636C214.803 52.9394 214.523 53.0152 214.159 53.0909C213.795 53.1742 213.341 53.2197 212.795 53.2273C211.902 53.2424 211.068 53.0833 210.295 52.75C209.523 52.4167 208.898 51.9015 208.42 51.2045C207.943 50.5076 207.705 49.6326 207.705 48.5795V31.3636ZM222.213 29.7273V53H218.815V29.7273H222.213ZM234.307 53.3523C232.587 53.3523 231.106 52.9848 229.864 52.25C228.629 51.5076 227.674 50.4659 227 49.125C226.333 47.7765 226 46.197 226 44.3864C226 42.5985 226.333 41.0227 227 39.6591C227.674 38.2955 228.614 37.2311 229.818 36.4659C231.03 35.7008 232.447 35.3182 234.068 35.3182C235.053 35.3182 236.008 35.4811 236.932 35.8068C237.856 36.1326 238.686 36.6439 239.42 37.3409C240.155 38.0379 240.735 38.9432 241.159 40.0568C241.583 41.1629 241.795 42.5076 241.795 44.0909V45.2955H227.92V42.75H238.466C238.466 41.8561 238.284 41.0644 237.92 40.375C237.557 39.678 237.045 39.1288 236.386 38.7273C235.735 38.3258 234.97 38.125 234.091 38.125C233.136 38.125 232.303 38.3598 231.591 38.8295C230.886 39.2917 230.341 39.8977 229.955 40.6477C229.576 41.3902 229.386 42.197 229.386 43.0682V45.0568C229.386 46.2235 229.591 47.2159 230 48.0341C230.417 48.8523 230.996 49.4773 231.739 49.9091C232.481 50.3333 233.348 50.5455 234.341 50.5455C234.985 50.5455 235.572 50.4545 236.102 50.2727C236.633 50.0833 237.091 49.803 237.477 49.4318C237.864 49.0606 238.159 48.6023 238.364 48.0568L241.58 48.6364C241.322 49.5833 240.86 50.4129 240.193 51.125C239.534 51.8295 238.705 52.3788 237.705 52.7727C236.712 53.1591 235.58 53.3523 234.307 53.3523Z" fill="white"/>
<defs>
<filter id="filter0_d_41_20" x="-6" y="0" width="384" height="92" filterUnits="userSpaceOnUse" color-interpolation-filters="sRGB">
<feFlood flood-opacity="0" result="BackgroundImageFix"/>
<feColorMatrix in="SourceAlpha" type="matrix" values="0 0 0 0 0 0 0 0 0 0 0 0 0 0 0 0 0 0 127 0" result="hardAlpha"/>
<feOffset dy="4"/>
<feGaussianBlur stdDeviation="2"/>
<feComposite in2="hardAlpha" operator="out"/>
<feColorMatrix type="matrix" values="0 0 0 0 0 0 0 0 0 0 0 0 0 0 0 0 0 0 0.25 0"/>
<feBlend mode="normal" in2="BackgroundImageFix" result="effect1_dropShadow_41_20"/>
<feBlend mode="normal" in="SourceGraphic" in2="effect1_dropShadow_41_20" result="shape"/>
</filter>
</defs>
</svg>
